<svg id="svg" version="1.1" xmlns="http://www.w3.org/2000/svg" xmlns:xlink="http://www.w3.org/1999/xlink" width="400" height="400" viewBox="0, 0, 400,400"><g id="svgg"><path id="path0" d="M198.775 9.248 C 198.239 9.398,197.213 9.538,196.496 9.560 C 194.962 9.607,191.677 11.048,190.753 12.078 C 190.397 12.475,189.852 12.800,189.541 12.800 C 189.231 12.800,188.717 13.160,188.400 13.600 C 188.083 14.040,187.620 14.400,187.371 14.400 C 187.122 14.400,186.354 14.940,185.663 15.600 C 184.972 16.260,184.175 16.800,183.892 16.800 C 183.609 16.800,183.117 17.160,182.800 17.600 C 182.483 18.040,182.020 18.400,181.771 18.400 C 181.522 18.400,180.754 18.940,180.063 19.600 C 179.372 20.260,178.575 20.800,178.292 20.800 C 178.009 20.800,177.517 21.160,177.200 21.600 C 176.883 22.040,176.459 22.400,176.259 22.400 C 176.058 22.400,175.598 22.741,175.236 23.158 C 174.617 23.872,173.394 24.687,170.600 26.248 C 169.940 26.617,169.109 27.252,168.753 27.659 C 168.397 28.067,167.852 28.400,167.541 28.400 C 167.231 28.400,166.717 28.760,166.400 29.200 C 166.083 29.640,165.638 30.000,165.412 30.001 C 165.185 30.001,164.370 30.541,163.600 31.200 C 162.830 31.859,162.015 32.399,161.788 32.399 C 161.562 32.400,161.117 32.760,160.800 33.200 C 160.483 33.640,160.033 34.000,159.800 34.000 C 159.567 34.000,159.117 34.360,158.800 34.800 C 158.483 35.240,157.975 35.600,157.672 35.600 C 157.369 35.600,156.617 36.140,156.000 36.800 C 155.383 37.460,154.631 38.000,154.328 38.000 C 154.025 38.000,153.517 38.360,153.200 38.800 C 152.883 39.240,152.391 39.600,152.108 39.600 C 151.825 39.600,151.028 40.140,150.337 40.800 C 149.646 41.460,148.926 42.000,148.737 42.000 C 148.285 42.000,144.240 44.828,144.067 45.264 C 143.993 45.449,143.718 45.600,143.455 45.600 C 143.192 45.600,142.717 45.960,142.400 46.400 C 142.083 46.840,141.585 47.200,141.294 47.200 C 141.002 47.200,140.314 47.650,139.764 48.200 C 139.214 48.750,138.600 49.200,138.400 49.200 C 138.200 49.200,137.586 49.650,137.036 50.200 C 136.486 50.750,135.798 51.200,135.506 51.200 C 135.215 51.200,134.717 51.560,134.400 52.000 C 134.083 52.440,133.620 52.800,133.371 52.800 C 133.122 52.800,132.354 53.340,131.663 54.000 C 130.972 54.660,130.175 55.200,129.892 55.200 C 129.609 55.200,129.117 55.560,128.800 56.000 C 128.483 56.440,127.993 56.800,127.712 56.800 C 127.430 56.800,127.200 56.980,127.200 57.200 C 127.200 57.420,126.930 57.600,126.600 57.600 C 126.270 57.600,126.000 57.752,126.000 57.937 C 126.000 58.122,125.370 58.613,124.600 59.028 C 123.830 59.443,123.200 59.909,123.200 60.064 C 123.200 60.219,122.834 60.462,122.387 60.604 C 121.940 60.746,121.138 61.298,120.605 61.831 C 120.072 62.364,119.398 62.800,119.106 62.800 C 118.815 62.800,118.317 63.160,118.000 63.600 C 117.683 64.040,117.220 64.400,116.971 64.400 C 116.722 64.400,115.954 64.940,115.263 65.600 C 114.572 66.260,113.775 66.800,113.492 66.800 C 113.209 66.800,112.717 67.160,112.400 67.600 C 112.083 68.040,111.638 68.400,111.412 68.400 C 111.012 68.401,109.762 69.358,107.493 71.403 C 106.884 71.951,106.159 72.400,105.881 72.400 C 105.604 72.400,105.117 72.760,104.800 73.200 C 104.483 73.640,103.986 74.000,103.695 74.000 C 103.404 74.000,102.769 74.375,102.283 74.834 C 101.797 75.293,100.869 75.946,100.220 76.286 C 99.570 76.626,98.792 77.150,98.491 77.452 C 98.190 77.753,97.784 78.000,97.590 78.000 C 97.395 78.000,96.786 78.450,96.236 79.000 C 95.686 79.550,95.076 80.000,94.880 80.000 C 94.684 80.000,94.198 80.360,93.800 80.800 C 93.402 81.240,92.922 81.600,92.734 81.600 C 92.546 81.600,91.828 82.140,91.137 82.800 C 90.446 83.460,89.678 84.000,89.429 84.000 C 89.180 84.000,88.717 84.360,88.400 84.800 C 88.083 85.240,87.543 85.600,87.200 85.600 C 86.857 85.600,86.317 85.960,86.000 86.400 C 85.683 86.840,85.193 87.200,84.912 87.200 C 84.630 87.200,84.400 87.380,84.400 87.600 C 84.400 87.820,84.170 88.000,83.888 88.000 C 83.607 88.000,83.117 88.360,82.800 88.800 C 82.483 89.240,81.943 89.600,81.600 89.600 C 81.257 89.600,80.717 89.960,80.400 90.400 C 80.083 90.840,79.662 91.200,79.465 91.200 C 79.102 91.200,75.440 93.761,74.471 94.692 C 74.181 94.971,73.784 95.200,73.590 95.200 C 73.395 95.200,72.786 95.650,72.236 96.200 C 71.686 96.750,70.998 97.200,70.706 97.200 C 70.415 97.200,69.917 97.560,69.600 98.000 C 69.283 98.440,68.838 98.800,68.612 98.801 C 68.385 98.801,67.570 99.341,66.800 100.000 C 66.030 100.659,65.215 101.199,64.988 101.199 C 64.762 101.200,64.317 101.560,64.000 102.000 C 63.683 102.440,63.220 102.800,62.971 102.800 C 62.722 102.800,61.954 103.340,61.263 104.000 C 60.572 104.660,59.827 105.200,59.607 105.200 C 59.387 105.200,58.982 105.560,58.707 106.000 C 58.432 106.440,57.931 106.800,57.592 106.800 C 57.254 106.800,56.717 107.160,56.400 107.600 C 56.083 108.040,55.580 108.400,55.283 108.400 C 54.986 108.400,54.492 108.625,54.185 108.900 C 52.917 110.037,52.417 110.400,52.117 110.401 C 51.943 110.401,51.170 110.941,50.400 111.600 C 49.630 112.259,48.841 112.799,48.647 112.799 C 48.453 112.800,48.003 113.116,47.647 113.503 C 47.291 113.889,46.505 114.460,45.900 114.770 C 45.295 115.081,44.800 115.485,44.800 115.668 C 44.800 115.850,44.610 116.000,44.378 116.000 C 44.146 116.000,43.381 116.539,42.678 117.198 C 41.975 117.857,41.215 118.397,40.988 118.398 C 40.762 118.399,40.317 118.760,40.000 119.200 C 39.683 119.640,39.191 120.000,38.908 120.000 C 38.625 120.000,37.828 120.540,37.137 121.200 C 36.446 121.860,35.678 122.400,35.429 122.400 C 35.180 122.400,34.717 122.760,34.400 123.200 C 34.083 123.640,33.503 124.000,33.112 124.000 C 32.720 124.000,32.400 124.142,32.400 124.316 C 32.400 124.490,31.500 125.158,30.400 125.800 C 29.300 126.442,28.400 127.110,28.400 127.284 C 28.400 127.458,28.209 127.600,27.977 127.600 C 27.513 127.600,24.585 129.784,23.553 130.900 C 23.197 131.285,22.652 131.600,22.341 131.600 C 22.031 131.600,21.517 131.960,21.200 132.400 C 20.883 132.840,20.391 133.200,20.108 133.200 C 19.825 133.200,19.028 133.740,18.337 134.400 C 17.646 135.060,16.878 135.600,16.629 135.600 C 16.380 135.600,15.917 135.960,15.600 136.400 C 15.283 136.840,14.791 137.200,14.508 137.200 C 14.225 137.200,13.428 137.740,12.737 138.400 C 12.046 139.060,11.278 139.600,11.029 139.600 C 10.780 139.600,10.317 139.960,10.000 140.400 C 9.683 140.840,9.193 141.200,8.912 141.200 C 8.630 141.200,8.400 141.339,8.400 141.509 C 8.400 141.679,7.767 142.159,6.993 142.576 C 5.101 143.595,2.000 146.566,2.000 147.360 C 2.000 147.712,1.820 148.000,1.600 148.000 C 1.380 148.000,1.200 148.345,1.200 148.767 C 1.200 149.188,0.975 149.608,0.700 149.700 C -0.009 149.937,-0.001 161.666,0.709 161.903 C 0.979 161.993,1.200 162.412,1.200 162.833 C 1.200 163.255,1.380 163.600,1.600 163.600 C 1.820 163.600,2.000 163.874,2.000 164.209 C 2.000 165.821,8.384 170.800,10.452 170.800 C 10.837 170.800,11.264 170.980,11.400 171.200 C 11.722 171.722,18.678 171.722,19.000 171.200 C 19.136 170.980,19.580 170.800,19.986 170.800 C 21.006 170.800,23.846 169.234,25.238 167.904 C 25.873 167.297,26.625 166.800,26.908 166.800 C 27.191 166.800,27.683 166.440,28.000 166.000 C 28.317 165.560,28.780 165.200,29.029 165.200 C 29.278 165.200,30.046 164.660,30.737 164.000 C 31.428 163.340,32.225 162.800,32.508 162.800 C 32.791 162.800,33.283 162.440,33.600 162.000 C 33.917 161.560,34.409 161.200,34.692 161.200 C 34.975 161.200,35.772 160.660,36.463 160.000 C 37.154 159.340,37.962 158.800,38.259 158.800 C 38.557 158.800,38.800 158.659,38.800 158.486 C 38.800 158.314,39.385 157.828,40.100 157.406 C 40.815 156.985,41.749 156.316,42.175 155.920 C 42.602 155.524,43.147 155.200,43.387 155.200 C 43.627 155.200,44.083 154.840,44.400 154.400 C 44.717 153.960,45.215 153.600,45.506 153.600 C 45.798 153.600,46.486 153.150,47.036 152.600 C 47.586 152.050,48.200 151.600,48.400 151.600 C 48.600 151.600,49.214 151.150,49.764 150.600 C 50.314 150.050,51.002 149.600,51.294 149.600 C 51.585 149.600,52.083 149.240,52.400 148.800 C 52.717 148.360,53.207 148.000,53.488 148.000 C 53.770 148.000,54.000 147.820,54.000 147.600 C 54.000 147.380,54.230 147.200,54.512 147.200 C 54.793 147.200,55.283 146.840,55.600 146.400 C 55.917 145.960,56.367 145.600,56.600 145.600 C 56.833 145.600,57.283 145.240,57.600 144.800 C 57.917 144.360,58.431 144.000,58.741 144.000 C 59.052 144.000,59.597 143.683,59.953 143.294 C 60.309 142.906,61.275 142.236,62.100 141.804 C 62.925 141.372,63.600 140.891,63.600 140.736 C 63.600 140.581,63.938 140.347,64.351 140.216 C 64.764 140.084,65.619 139.533,66.251 138.989 C 66.883 138.446,67.585 138.001,67.812 138.000 C 68.038 138.000,68.483 137.640,68.800 137.200 C 69.117 136.760,69.573 136.400,69.813 136.400 C 70.053 136.400,70.604 136.085,71.038 135.700 C 72.683 134.241,75.166 132.400,75.488 132.400 C 75.673 132.400,76.083 132.040,76.400 131.600 C 76.717 131.160,77.225 130.800,77.528 130.800 C 77.831 130.800,78.583 130.260,79.200 129.600 C 79.817 128.940,80.569 128.400,80.872 128.400 C 81.175 128.400,81.683 128.040,82.000 127.600 C 82.317 127.160,82.857 126.800,83.200 126.800 C 83.543 126.800,84.083 126.440,84.400 126.000 C 84.717 125.560,85.123 125.200,85.301 125.200 C 85.757 125.200,92.062 120.785,92.847 119.916 C 93.203 119.522,93.748 119.200,94.059 119.200 C 94.369 119.200,94.883 118.840,95.200 118.400 C 95.517 117.960,95.980 117.600,96.229 117.600 C 96.478 117.600,97.246 117.060,97.937 116.400 C 98.628 115.740,99.425 115.200,99.708 115.200 C 99.991 115.200,100.483 114.840,100.800 114.400 C 101.117 113.960,101.580 113.600,101.829 113.600 C 102.078 113.600,102.846 113.060,103.537 112.400 C 104.228 111.740,105.025 111.200,105.308 111.200 C 105.591 111.200,106.083 110.840,106.400 110.400 C 106.717 109.960,107.141 109.600,107.341 109.600 C 107.542 109.600,107.997 109.268,108.353 108.862 C 108.709 108.456,109.675 107.806,110.500 107.416 C 111.325 107.027,112.000 106.549,112.000 106.354 C 112.000 106.159,112.225 106.000,112.500 105.999 C 112.775 105.999,113.630 105.459,114.400 104.800 C 115.170 104.141,115.985 103.601,116.212 103.601 C 116.438 103.600,116.883 103.240,117.200 102.800 C 117.517 102.360,117.962 102.000,118.188 101.999 C 118.415 101.999,119.230 101.459,120.000 100.800 C 120.770 100.141,121.585 99.601,121.812 99.601 C 122.038 99.600,122.483 99.240,122.800 98.800 C 123.117 98.360,123.567 98.000,123.800 98.000 C 124.033 98.000,124.483 97.640,124.800 97.200 C 125.117 96.760,125.625 96.400,125.928 96.400 C 126.231 96.400,126.983 95.860,127.600 95.200 C 128.217 94.540,128.969 94.000,129.272 94.000 C 129.575 94.000,130.083 93.640,130.400 93.200 C 130.717 92.760,131.214 92.400,131.505 92.400 C 131.796 92.400,132.431 92.028,132.917 91.574 C 133.403 91.119,134.385 90.469,135.100 90.128 C 135.815 89.787,136.400 89.349,136.400 89.154 C 136.400 88.959,136.625 88.800,136.900 88.800 C 137.380 88.799,138.539 87.931,140.907 85.797 C 141.516 85.249,142.241 84.800,142.519 84.800 C 142.796 84.800,143.283 84.440,143.600 84.000 C 143.917 83.560,144.380 83.200,144.629 83.200 C 144.878 83.200,145.646 82.660,146.337 82.000 C 147.028 81.340,147.825 80.800,148.108 80.800 C 148.391 80.800,148.883 80.440,149.200 80.000 C 149.517 79.560,149.980 79.200,150.229 79.200 C 150.478 79.200,151.246 78.660,151.937 78.000 C 152.628 77.340,153.425 76.800,153.708 76.800 C 153.991 76.800,154.483 76.440,154.800 76.000 C 155.117 75.560,155.545 75.200,155.751 75.200 C 155.956 75.200,156.714 74.750,157.436 74.200 C 158.157 73.650,158.899 73.200,159.085 73.200 C 159.271 73.200,159.683 72.840,160.000 72.400 C 160.317 71.960,160.762 71.600,160.988 71.599 C 161.215 71.599,162.030 71.059,162.800 70.400 C 163.570 69.741,164.385 69.201,164.612 69.201 C 164.838 69.200,165.283 68.840,165.600 68.400 C 165.917 67.960,166.409 67.600,166.692 67.600 C 166.975 67.600,167.772 67.060,168.463 66.400 C 169.154 65.740,169.896 65.200,170.112 65.200 C 170.329 65.200,170.797 64.884,171.153 64.497 C 171.509 64.111,172.295 63.540,172.900 63.230 C 173.505 62.919,174.000 62.515,174.000 62.332 C 174.000 62.150,174.198 62.000,174.440 62.000 C 174.681 62.000,175.383 61.460,176.000 60.800 C 176.617 60.140,177.409 59.600,177.760 59.600 C 178.112 59.600,178.400 59.441,178.400 59.246 C 178.400 59.051,178.985 58.613,179.700 58.272 C 180.415 57.931,181.360 57.326,181.800 56.926 C 182.240 56.527,183.095 55.945,183.700 55.632 C 184.305 55.320,184.800 54.915,184.800 54.732 C 184.800 54.550,185.025 54.400,185.300 54.400 C 185.575 54.399,186.340 53.934,187.000 53.365 C 187.660 52.796,188.695 52.037,189.300 51.679 C 189.905 51.321,190.400 50.886,190.400 50.714 C 190.400 50.541,190.630 50.400,190.912 50.400 C 191.193 50.400,191.683 50.040,192.000 49.600 C 192.317 49.160,192.780 48.800,193.029 48.800 C 193.278 48.800,194.046 48.260,194.737 47.600 C 195.428 46.940,196.198 46.400,196.449 46.400 C 196.701 46.400,197.199 46.085,197.557 45.700 C 198.611 44.567,200.139 43.817,200.315 44.346 C 200.398 44.595,200.723 44.800,201.037 44.800 C 201.351 44.800,202.172 45.340,202.863 46.000 C 203.554 46.660,204.322 47.200,204.571 47.200 C 204.820 47.200,205.283 47.560,205.600 48.000 C 205.917 48.440,206.457 48.800,206.800 48.800 C 207.143 48.800,207.683 49.160,208.000 49.600 C 208.317 50.040,208.715 50.400,208.884 50.400 C 209.178 50.400,210.304 51.245,211.416 52.300 C 211.706 52.575,212.136 52.800,212.371 52.800 C 212.607 52.800,212.800 52.950,212.800 53.132 C 212.800 53.315,213.295 53.719,213.900 54.030 C 214.505 54.340,215.270 54.884,215.600 55.238 C 215.930 55.592,216.740 56.183,217.400 56.552 C 220.194 58.113,221.417 58.928,222.036 59.642 C 222.398 60.059,222.948 60.400,223.259 60.400 C 223.569 60.400,224.083 60.760,224.400 61.200 C 224.717 61.640,225.167 62.000,225.400 62.000 C 225.633 62.000,226.083 62.360,226.400 62.800 C 226.717 63.240,227.207 63.600,227.488 63.600 C 227.770 63.600,228.000 63.780,228.000 64.000 C 228.000 64.220,228.270 64.400,228.600 64.400 C 228.930 64.400,229.200 64.550,229.200 64.732 C 229.200 64.915,229.695 65.319,230.300 65.630 C 230.905 65.940,231.691 66.511,232.047 66.897 C 232.403 67.284,232.899 67.600,233.151 67.600 C 233.402 67.600,234.172 68.140,234.863 68.800 C 235.554 69.460,236.322 70.000,236.571 70.000 C 236.820 70.000,237.283 70.360,237.600 70.800 C 237.917 71.240,238.373 71.600,238.613 71.600 C 238.853 71.600,239.398 71.915,239.825 72.300 C 240.710 73.099,243.876 75.200,244.195 75.200 C 244.312 75.200,244.972 75.740,245.663 76.400 C 246.354 77.060,247.122 77.600,247.371 77.600 C 247.620 77.600,248.083 77.960,248.400 78.400 C 248.717 78.840,249.209 79.200,249.492 79.200 C 249.775 79.200,250.572 79.740,251.263 80.400 C 251.954 81.060,252.722 81.600,252.971 81.600 C 253.220 81.600,253.683 81.960,254.000 82.400 C 254.317 82.840,254.857 83.200,255.200 83.200 C 255.543 83.200,256.083 83.560,256.400 84.000 C 256.717 84.440,257.180 84.800,257.429 84.800 C 257.678 84.800,258.446 85.340,259.137 86.000 C 259.828 86.660,260.574 87.200,260.796 87.200 C 261.018 87.200,261.200 87.350,261.200 87.532 C 261.200 87.715,261.695 88.120,262.300 88.432 C 262.905 88.745,263.840 89.398,264.379 89.884 C 264.917 90.370,265.862 90.977,266.479 91.233 C 267.095 91.488,267.600 91.855,267.600 92.049 C 267.600 92.242,267.888 92.400,268.240 92.400 C 268.591 92.400,269.383 92.940,270.000 93.600 C 270.617 94.260,271.369 94.800,271.672 94.800 C 271.975 94.800,272.483 95.160,272.800 95.600 C 273.117 96.040,273.604 96.400,273.881 96.400 C 274.159 96.400,274.884 96.849,275.493 97.397 C 277.762 99.442,279.012 100.399,279.412 100.400 C 279.638 100.400,280.083 100.760,280.400 101.200 C 280.717 101.640,281.209 102.000,281.492 102.000 C 281.775 102.000,282.572 102.540,283.263 103.200 C 283.954 103.860,284.722 104.400,284.971 104.400 C 285.220 104.400,285.683 104.760,286.000 105.200 C 286.317 105.640,286.815 106.000,287.106 106.000 C 287.397 106.000,288.120 106.450,288.713 107.000 C 289.307 107.550,290.069 108.000,290.408 108.000 C 290.746 108.000,291.283 108.360,291.600 108.800 C 291.917 109.240,292.367 109.600,292.600 109.600 C 292.833 109.600,293.283 109.960,293.600 110.400 C 293.917 110.840,294.407 111.200,294.688 111.200 C 294.970 111.200,295.200 111.380,295.200 111.600 C 295.200 111.820,295.430 112.000,295.712 112.000 C 295.993 112.000,296.483 112.360,296.800 112.800 C 297.117 113.240,297.609 113.600,297.892 113.600 C 298.175 113.600,298.972 114.140,299.663 114.800 C 300.354 115.460,301.122 116.000,301.371 116.000 C 301.620 116.000,302.083 116.360,302.400 116.800 C 302.717 117.240,303.257 117.600,303.600 117.600 C 303.943 117.600,304.483 117.960,304.800 118.400 C 305.117 118.840,305.573 119.200,305.813 119.200 C 306.053 119.200,306.604 119.515,307.038 119.900 C 308.668 121.345,311.165 123.200,311.481 123.200 C 311.661 123.200,312.293 123.650,312.887 124.200 C 313.480 124.750,314.203 125.200,314.494 125.200 C 314.785 125.200,315.283 125.560,315.600 126.000 C 315.917 126.440,316.425 126.800,316.728 126.800 C 317.031 126.800,317.783 127.340,318.400 128.000 C 319.017 128.660,319.769 129.200,320.072 129.200 C 320.375 129.200,320.883 129.560,321.200 130.000 C 321.517 130.440,322.031 130.800,322.341 130.800 C 322.652 130.800,323.197 131.115,323.553 131.500 C 324.489 132.512,327.495 134.800,327.888 134.800 C 328.073 134.800,328.483 135.160,328.800 135.600 C 329.117 136.040,329.609 136.400,329.892 136.400 C 330.175 136.400,330.972 136.940,331.663 137.600 C 332.354 138.260,333.162 138.800,333.459 138.800 C 333.757 138.800,334.000 138.950,334.000 139.132 C 334.000 139.315,334.495 139.720,335.100 140.032 C 335.705 140.345,336.419 140.780,336.686 141.000 C 336.953 141.220,337.441 141.625,337.769 141.900 C 338.098 142.175,338.604 142.400,338.895 142.400 C 339.186 142.400,339.683 142.760,340.000 143.200 C 340.317 143.640,340.805 144.000,341.085 144.000 C 341.364 144.000,342.109 144.540,342.740 145.200 C 343.371 145.860,344.052 146.400,344.255 146.400 C 344.458 146.400,344.883 146.760,345.200 147.200 C 345.517 147.640,346.009 148.000,346.292 148.000 C 346.575 148.000,347.372 148.540,348.063 149.200 C 348.754 149.860,349.522 150.400,349.771 150.400 C 350.020 150.400,350.483 150.760,350.800 151.200 C 351.117 151.640,351.615 152.000,351.906 152.000 C 352.198 152.000,352.886 152.450,353.436 153.000 C 353.986 153.550,354.580 154.000,354.756 154.000 C 354.932 154.000,355.599 154.450,356.238 155.000 C 356.877 155.549,357.625 155.999,357.900 156.000 C 358.175 156.000,358.400 156.141,358.400 156.314 C 358.400 156.486,358.985 156.972,359.700 157.394 C 360.415 157.815,361.349 158.484,361.775 158.880 C 362.202 159.276,362.747 159.600,362.987 159.600 C 363.227 159.600,363.683 159.960,364.000 160.400 C 364.317 160.840,364.780 161.200,365.029 161.200 C 365.278 161.200,366.046 161.740,366.737 162.400 C 367.428 163.060,368.225 163.600,368.508 163.600 C 368.791 163.600,369.283 163.960,369.600 164.400 C 369.917 164.840,370.409 165.200,370.692 165.200 C 370.975 165.200,371.772 165.740,372.463 166.400 C 373.154 167.060,373.896 167.600,374.112 167.600 C 374.329 167.600,374.797 167.929,375.153 168.330 C 375.509 168.732,376.385 169.316,377.100 169.628 C 377.815 169.940,378.400 170.331,378.400 170.498 C 378.400 170.664,378.929 170.800,379.576 170.800 C 380.223 170.800,380.864 170.980,381.000 171.200 C 381.136 171.420,382.756 171.600,384.600 171.600 C 386.444 171.600,388.064 171.420,388.200 171.200 C 388.336 170.980,388.977 170.800,389.624 170.800 C 390.271 170.800,390.800 170.620,390.800 170.400 C 390.800 170.180,391.160 170.000,391.600 170.000 C 392.040 170.000,392.400 169.820,392.400 169.600 C 392.400 169.380,392.674 169.200,393.009 169.200 C 393.343 169.200,394.603 168.214,395.809 167.009 C 397.014 165.803,398.000 164.543,398.000 164.209 C 398.000 163.874,398.180 163.600,398.400 163.600 C 398.620 163.600,398.800 163.255,398.800 162.833 C 398.800 162.412,399.025 161.992,399.300 161.900 C 400.010 161.663,400.010 150.650,399.300 149.940 C 399.025 149.665,398.800 149.156,398.800 148.808 C 398.800 148.461,398.440 147.917,398.000 147.600 C 397.560 147.283,397.200 146.775,397.200 146.472 C 397.200 145.912,394.961 143.600,394.419 143.600 C 394.158 143.600,393.531 143.137,391.717 141.607 C 391.451 141.383,391.046 141.200,390.817 141.200 C 390.588 141.200,390.400 141.050,390.400 140.868 C 390.400 140.685,389.905 140.281,389.300 139.970 C 388.695 139.660,387.909 139.089,387.553 138.703 C 387.197 138.316,386.729 138.000,386.512 138.000 C 386.296 138.000,385.554 137.460,384.863 136.800 C 384.172 136.140,383.375 135.600,383.092 135.600 C 382.809 135.600,382.317 135.240,382.000 134.800 C 381.683 134.360,381.191 134.000,380.908 134.000 C 380.625 134.000,379.828 133.460,379.137 132.800 C 378.446 132.140,377.678 131.600,377.429 131.600 C 377.180 131.600,376.717 131.240,376.400 130.800 C 376.083 130.360,375.650 130.000,375.437 130.000 C 375.225 130.000,374.680 129.666,374.226 129.258 C 373.010 128.165,366.897 124.000,366.509 124.000 C 366.326 124.000,365.917 123.640,365.600 123.200 C 365.283 122.760,364.791 122.400,364.508 122.400 C 364.225 122.400,363.428 121.860,362.737 121.200 C 362.046 120.540,361.278 120.000,361.029 120.000 C 360.780 120.000,360.317 119.640,360.000 119.200 C 359.683 118.760,359.143 118.400,358.800 118.400 C 358.457 118.400,357.917 118.040,357.600 117.600 C 357.283 117.160,356.881 116.800,356.708 116.800 C 356.535 116.800,355.828 116.260,355.137 115.600 C 354.446 114.940,353.638 114.400,353.341 114.400 C 353.043 114.400,352.800 114.250,352.800 114.068 C 352.800 113.885,352.305 113.480,351.700 113.168 C 351.095 112.855,350.187 112.195,349.682 111.700 C 349.177 111.205,348.605 110.800,348.410 110.800 C 348.216 110.800,347.810 110.553,347.509 110.252 C 347.208 109.950,346.340 109.384,345.580 108.993 C 344.821 108.602,343.909 107.948,343.553 107.541 C 343.197 107.133,342.652 106.800,342.341 106.800 C 342.031 106.800,341.517 106.440,341.200 106.000 C 340.883 105.560,340.433 105.200,340.200 105.200 C 339.967 105.200,339.517 104.840,339.200 104.400 C 338.883 103.960,338.393 103.600,338.112 103.600 C 337.830 103.600,337.600 103.420,337.600 103.200 C 337.600 102.980,337.370 102.800,337.088 102.800 C 336.807 102.800,336.317 102.440,336.000 102.000 C 335.683 101.560,335.143 101.200,334.800 101.200 C 334.457 101.200,333.917 100.840,333.600 100.400 C 333.283 99.960,332.820 99.600,332.571 99.600 C 332.322 99.600,331.554 99.060,330.863 98.400 C 330.172 97.740,329.375 97.200,329.092 97.200 C 328.809 97.200,328.317 96.840,328.000 96.400 C 327.683 95.960,327.238 95.598,327.012 95.595 C 326.628 95.590,326.176 95.269,323.211 92.900 C 322.591 92.405,321.930 92.000,321.742 91.999 C 321.554 91.999,320.770 91.459,320.000 90.800 C 319.230 90.141,318.415 89.601,318.188 89.601 C 317.962 89.600,317.517 89.240,317.200 88.800 C 316.883 88.360,316.391 88.000,316.108 88.000 C 315.825 88.000,315.028 87.460,314.337 86.800 C 313.646 86.140,312.878 85.600,312.629 85.600 C 312.380 85.600,311.917 85.240,311.600 84.800 C 311.283 84.360,310.785 84.000,310.494 84.000 C 310.202 84.000,309.527 83.563,308.993 83.029 C 308.459 82.495,307.477 81.736,306.811 81.343 C 306.145 80.949,305.600 80.486,305.600 80.314 C 305.600 80.141,305.330 80.000,305.000 80.000 C 304.670 80.000,304.400 79.850,304.400 79.668 C 304.400 79.485,303.905 79.080,303.300 78.768 C 302.695 78.456,302.110 78.094,302.000 77.964 C 301.511 77.382,297.564 74.800,297.165 74.800 C 296.921 74.800,296.217 74.260,295.600 73.600 C 294.983 72.940,294.231 72.400,293.928 72.400 C 293.625 72.400,293.117 72.040,292.800 71.600 C 292.483 71.160,291.993 70.800,291.712 70.800 C 291.430 70.800,291.200 70.659,291.200 70.486 C 291.200 70.314,290.705 69.879,290.100 69.521 C 289.495 69.163,288.460 68.404,287.800 67.835 C 287.140 67.266,286.415 66.801,286.188 66.800 C 285.962 66.800,285.517 66.440,285.200 66.000 C 284.883 65.560,284.438 65.200,284.212 65.199 C 283.985 65.199,283.170 64.659,282.400 64.000 C 281.630 63.341,280.815 62.801,280.588 62.801 C 280.362 62.800,279.917 62.440,279.600 62.000 C 279.283 61.560,278.827 61.200,278.587 61.200 C 278.347 61.200,277.802 60.885,277.375 60.500 C 276.490 59.701,273.324 57.600,273.005 57.600 C 272.888 57.600,272.228 57.060,271.537 56.400 C 270.846 55.740,270.078 55.200,269.829 55.200 C 269.580 55.200,269.117 54.840,268.800 54.400 C 268.483 53.960,267.991 53.600,267.708 53.600 C 267.425 53.600,266.628 53.060,265.937 52.400 C 265.246 51.740,264.478 51.200,264.229 51.200 C 263.980 51.200,263.517 50.840,263.200 50.400 C 262.883 49.960,262.385 49.600,262.094 49.600 C 261.802 49.600,261.114 49.150,260.564 48.600 C 260.014 48.050,259.400 47.600,259.200 47.600 C 259.000 47.600,258.386 47.150,257.836 46.600 C 257.286 46.050,256.663 45.600,256.452 45.600 C 256.240 45.600,256.007 45.463,255.933 45.295 C 255.764 44.908,252.152 42.379,250.700 41.631 C 250.095 41.320,249.600 40.915,249.600 40.732 C 249.600 40.550,249.357 40.400,249.059 40.400 C 248.762 40.400,247.954 39.860,247.263 39.200 C 246.572 38.540,245.775 38.000,245.492 38.000 C 245.209 38.000,244.717 37.640,244.400 37.200 C 244.083 36.760,243.575 36.400,243.272 36.400 C 242.969 36.400,242.217 35.860,241.600 35.200 C 240.983 34.540,240.281 34.000,240.040 34.000 C 239.798 34.000,239.600 33.850,239.600 33.668 C 239.600 33.485,239.105 33.081,238.500 32.770 C 237.895 32.460,237.109 31.889,236.753 31.503 C 236.397 31.116,235.947 30.800,235.753 30.799 C 235.559 30.799,234.770 30.259,234.000 29.600 C 233.230 28.941,232.390 28.401,232.133 28.401 C 231.877 28.400,231.607 28.263,231.533 28.095 C 231.305 27.573,227.226 24.800,226.687 24.800 C 226.406 24.800,225.917 24.440,225.600 24.000 C 225.283 23.560,224.833 23.200,224.600 23.200 C 224.367 23.200,223.917 22.840,223.600 22.400 C 223.283 21.960,222.793 21.600,222.512 21.600 C 222.230 21.600,222.000 21.420,222.000 21.200 C 222.000 20.980,221.770 20.800,221.488 20.800 C 221.207 20.800,220.717 20.440,220.400 20.000 C 220.083 19.560,219.591 19.200,219.308 19.200 C 219.025 19.200,218.228 18.660,217.537 18.000 C 216.846 17.340,216.078 16.800,215.829 16.800 C 215.580 16.800,215.117 16.440,214.800 16.000 C 214.483 15.560,213.991 15.200,213.708 15.200 C 213.425 15.200,212.628 14.660,211.937 14.000 C 211.246 13.340,210.521 12.800,210.324 12.800 C 210.127 12.800,209.580 12.440,209.108 12.000 C 208.636 11.560,208.013 11.200,207.725 11.200 C 207.436 11.200,207.200 11.041,207.200 10.847 C 207.200 10.463,206.394 10.234,202.375 9.473 C 200.931 9.199,199.311 9.098,198.775 9.248 M198.063 54.000 C 197.372 54.660,196.575 55.200,196.292 55.200 C 196.009 55.200,195.517 55.560,195.200 56.000 C 194.883 56.440,194.393 56.800,194.112 56.800 C 193.830 56.800,193.600 56.935,193.599 57.100 C 193.599 57.265,192.744 57.935,191.699 58.588 C 190.655 59.242,189.562 60.007,189.271 60.288 C 188.981 60.570,188.584 60.800,188.390 60.800 C 188.195 60.800,187.586 61.250,187.036 61.800 C 186.486 62.350,185.798 62.800,185.506 62.800 C 185.215 62.800,184.717 63.160,184.400 63.600 C 184.083 64.040,183.638 64.400,183.412 64.401 C 183.185 64.401,182.370 64.941,181.600 65.600 C 180.830 66.259,180.041 66.799,179.847 66.799 C 179.653 66.800,179.203 67.116,178.847 67.503 C 178.491 67.889,177.705 68.460,177.100 68.770 C 176.495 69.081,176.000 69.485,176.000 69.668 C 176.000 69.850,175.802 70.000,175.560 70.000 C 175.319 70.000,174.617 70.540,174.000 71.200 C 173.383 71.860,172.631 72.400,172.328 72.400 C 172.025 72.400,171.517 72.760,171.200 73.200 C 170.883 73.640,170.386 74.000,170.095 74.000 C 169.804 74.000,169.169 74.375,168.683 74.834 C 168.197 75.293,167.269 75.946,166.620 76.286 C 165.970 76.626,165.192 77.150,164.891 77.452 C 164.590 77.753,164.184 78.000,163.990 78.000 C 163.795 78.000,163.186 78.450,162.636 79.000 C 162.086 79.550,161.476 80.000,161.280 80.000 C 161.084 80.000,160.598 80.360,160.200 80.800 C 159.802 81.240,159.322 81.600,159.134 81.600 C 158.946 81.600,158.228 82.140,157.537 82.800 C 156.846 83.460,156.078 84.000,155.829 84.000 C 155.580 84.000,155.117 84.360,154.800 84.800 C 154.483 85.240,153.943 85.600,153.600 85.600 C 153.257 85.600,152.717 85.960,152.400 86.400 C 152.083 86.840,151.620 87.200,151.371 87.200 C 151.122 87.200,150.354 87.740,149.663 88.400 C 148.972 89.060,148.175 89.600,147.892 89.600 C 147.609 89.600,147.117 89.960,146.800 90.400 C 146.483 90.840,145.993 91.200,145.712 91.200 C 145.430 91.200,145.200 91.380,145.200 91.600 C 145.200 91.820,145.008 92.000,144.773 92.000 C 144.365 92.000,141.983 93.648,140.871 94.700 C 140.581 94.975,140.184 95.200,139.990 95.200 C 139.795 95.200,139.186 95.650,138.636 96.200 C 138.086 96.750,137.398 97.200,137.106 97.200 C 136.815 97.200,136.317 97.560,136.000 98.000 C 135.683 98.440,135.238 98.800,135.012 98.801 C 134.785 98.801,133.970 99.341,133.200 100.000 C 132.430 100.659,131.615 101.199,131.388 101.199 C 131.162 101.200,130.717 101.560,130.400 102.000 C 130.083 102.440,129.620 102.800,129.371 102.800 C 129.122 102.800,128.354 103.340,127.663 104.000 C 126.972 104.660,126.265 105.200,126.092 105.200 C 125.919 105.200,125.517 105.560,125.200 106.000 C 124.883 106.440,124.343 106.800,124.000 106.800 C 123.657 106.800,123.117 107.160,122.800 107.600 C 122.483 108.040,121.980 108.400,121.683 108.400 C 121.386 108.400,120.892 108.625,120.585 108.900 C 119.317 110.037,118.817 110.400,118.517 110.401 C 118.343 110.401,117.570 110.941,116.800 111.600 C 116.030 112.259,115.241 112.799,115.047 112.799 C 114.853 112.800,114.403 113.116,114.047 113.503 C 113.691 113.889,112.905 114.460,112.300 114.770 C 111.695 115.081,111.200 115.485,111.200 115.668 C 111.200 115.850,110.994 116.000,110.743 116.000 C 110.492 116.000,109.771 116.540,109.140 117.200 C 108.509 117.860,107.764 118.400,107.485 118.400 C 107.205 118.400,106.717 118.760,106.400 119.200 C 106.083 119.640,105.591 120.000,105.308 120.000 C 105.025 120.000,104.228 120.540,103.537 121.200 C 102.846 121.860,102.078 122.400,101.829 122.400 C 101.580 122.400,101.117 122.760,100.800 123.200 C 100.483 123.640,99.986 124.000,99.695 124.000 C 99.404 124.000,98.769 124.372,98.283 124.826 C 97.797 125.281,96.815 125.931,96.100 126.272 C 95.385 126.613,94.800 127.051,94.800 127.246 C 94.800 127.441,94.530 127.600,94.200 127.600 C 93.870 127.600,93.599 127.735,93.597 127.900 C 93.596 128.065,92.921 128.648,92.097 129.195 C 91.274 129.742,90.309 130.507,89.953 130.895 C 89.597 131.283,89.052 131.600,88.741 131.600 C 88.431 131.600,87.917 131.960,87.600 132.400 C 87.283 132.840,86.820 133.200,86.571 133.200 C 86.322 133.200,85.554 133.740,84.863 134.400 C 84.172 135.060,83.375 135.600,83.092 135.600 C 82.809 135.600,82.317 135.960,82.000 136.400 C 81.683 136.840,81.238 137.200,81.012 137.201 C 80.785 137.201,79.970 137.741,79.200 138.400 C 78.430 139.059,77.615 139.599,77.388 139.599 C 77.162 139.600,76.717 139.960,76.400 140.400 C 76.083 140.840,75.670 141.200,75.483 141.200 C 75.296 141.200,74.892 141.425,74.585 141.700 C 73.588 142.594,73.019 142.990,71.900 143.568 C 71.295 143.880,70.800 144.285,70.800 144.468 C 70.800 144.650,70.575 144.800,70.300 144.801 C 70.025 144.801,69.170 145.341,68.400 146.000 C 67.630 146.659,66.841 147.199,66.647 147.199 C 66.453 147.200,66.003 147.516,65.647 147.903 C 65.291 148.289,64.505 148.860,63.900 149.170 C 63.295 149.481,62.800 149.885,62.800 150.068 C 62.800 150.250,62.530 150.400,62.200 150.400 C 61.870 150.400,61.600 150.580,61.600 150.800 C 61.600 151.020,61.370 151.200,61.088 151.200 C 60.807 151.200,60.317 151.560,60.000 152.000 C 59.683 152.440,59.233 152.800,59.000 152.800 C 58.767 152.800,58.317 153.160,58.000 153.600 C 57.683 154.040,57.175 154.400,56.872 154.400 C 56.569 154.400,55.817 154.940,55.200 155.600 C 54.583 156.260,53.831 156.800,53.528 156.800 C 53.225 156.800,52.717 157.160,52.400 157.600 C 52.083 158.040,51.546 158.400,51.208 158.400 C 50.869 158.400,50.107 158.850,49.513 159.400 C 48.920 159.950,48.281 160.400,48.093 160.400 C 47.905 160.400,47.402 160.724,46.975 161.120 C 46.549 161.516,45.885 161.961,45.500 162.108 C 44.836 162.361,44.800 168.173,44.800 276.387 L 44.800 390.400 200.000 390.400 L 355.200 390.400 355.203 276.700 L 355.205 163.000 353.707 161.700 C 352.883 160.985,352.064 160.400,351.887 160.400 C 351.710 160.400,351.080 159.950,350.487 159.400 C 349.893 158.850,349.131 158.400,348.792 158.400 C 348.454 158.400,347.917 158.040,347.600 157.600 C 347.283 157.160,346.791 156.800,346.508 156.800 C 346.225 156.800,345.428 156.260,344.737 155.600 C 344.046 154.940,343.278 154.400,343.029 154.400 C 342.780 154.400,342.317 154.040,342.000 153.600 C 341.683 153.160,341.193 152.800,340.912 152.800 C 340.630 152.800,340.400 152.659,340.400 152.486 C 340.400 152.314,339.905 151.879,339.300 151.521 C 338.695 151.163,337.660 150.404,337.000 149.835 C 336.340 149.266,335.615 148.801,335.388 148.800 C 335.162 148.800,334.717 148.440,334.400 148.000 C 334.083 147.560,333.591 147.200,333.308 147.200 C 333.025 147.200,332.228 146.660,331.537 146.000 C 330.846 145.340,330.038 144.800,329.741 144.800 C 329.443 144.800,329.200 144.650,329.200 144.468 C 329.200 144.285,328.705 143.880,328.100 143.568 C 327.495 143.255,326.781 142.820,326.514 142.600 C 326.247 142.380,325.759 141.975,325.431 141.700 C 325.102 141.425,324.646 141.200,324.417 141.200 C 324.188 141.200,324.000 141.050,324.000 140.868 C 324.000 140.685,323.505 140.281,322.900 139.970 C 322.295 139.660,321.509 139.089,321.153 138.703 C 320.797 138.316,320.302 138.000,320.053 138.000 C 319.804 138.000,319.600 137.820,319.600 137.600 C 319.600 137.380,319.370 137.200,319.088 137.200 C 318.807 137.200,318.317 136.840,318.000 136.400 C 317.683 135.960,317.143 135.600,316.800 135.600 C 316.457 135.600,315.917 135.240,315.600 134.800 C 315.283 134.360,314.820 134.000,314.571 134.000 C 314.322 134.000,313.554 133.460,312.863 132.800 C 312.172 132.140,311.375 131.600,311.092 131.600 C 310.809 131.600,310.317 131.240,310.000 130.800 C 309.683 130.360,309.273 130.000,309.088 130.000 C 308.766 130.000,306.283 128.159,304.638 126.700 C 304.204 126.315,303.656 126.000,303.420 126.000 C 303.185 126.000,302.507 125.550,301.913 125.000 C 301.320 124.450,300.597 124.000,300.306 124.000 C 300.015 124.000,299.517 123.640,299.200 123.200 C 298.883 122.760,298.375 122.400,298.072 122.400 C 297.769 122.400,297.017 121.860,296.400 121.200 C 295.783 120.540,295.031 120.000,294.728 120.000 C 294.425 120.000,293.917 119.640,293.600 119.200 C 293.283 118.760,292.796 118.400,292.519 118.400 C 292.241 118.400,291.516 117.951,290.907 117.403 C 288.638 115.358,287.388 114.401,286.988 114.400 C 286.762 114.400,286.317 114.040,286.000 113.600 C 285.683 113.160,285.238 112.800,285.012 112.800 C 284.785 112.799,284.077 112.349,283.438 111.800 C 282.799 111.250,282.136 110.800,281.966 110.800 C 281.796 110.800,281.410 110.553,281.109 110.252 C 280.808 109.950,279.940 109.384,279.180 108.993 C 278.421 108.602,277.509 107.948,277.153 107.541 C 276.797 107.133,276.252 106.800,275.941 106.800 C 275.631 106.800,275.117 106.440,274.800 106.000 C 274.483 105.560,274.033 105.200,273.800 105.200 C 273.567 105.200,273.117 104.840,272.800 104.400 C 272.483 103.960,271.993 103.600,271.712 103.600 C 271.430 103.600,271.200 103.420,271.200 103.200 C 271.200 102.980,270.970 102.800,270.688 102.800 C 270.407 102.800,269.917 102.440,269.600 102.000 C 269.283 101.560,268.785 101.200,268.494 101.200 C 268.202 101.200,267.514 100.750,266.964 100.200 C 266.414 99.650,265.800 99.200,265.600 99.200 C 265.400 99.200,264.786 98.750,264.236 98.200 C 263.686 97.650,262.998 97.200,262.706 97.200 C 262.415 97.200,261.917 96.840,261.600 96.400 C 261.283 95.960,260.838 95.598,260.612 95.595 C 260.228 95.590,259.776 95.269,256.811 92.900 C 256.191 92.405,255.530 92.000,255.342 91.999 C 255.154 91.999,254.370 91.459,253.600 90.800 C 252.830 90.141,252.015 89.601,251.788 89.601 C 251.562 89.600,251.117 89.240,250.800 88.800 C 250.483 88.360,249.991 88.000,249.708 88.000 C 249.425 88.000,248.628 87.460,247.937 86.800 C 247.246 86.140,246.478 85.600,246.229 85.600 C 245.980 85.600,245.517 85.240,245.200 84.800 C 244.883 84.360,244.385 84.000,244.094 84.000 C 243.802 84.000,243.127 83.563,242.593 83.029 C 242.059 82.495,241.077 81.736,240.411 81.343 C 239.745 80.949,239.200 80.486,239.200 80.314 C 239.200 80.141,238.930 80.000,238.600 80.000 C 238.270 80.000,238.000 79.859,238.000 79.686 C 238.000 79.514,237.505 79.076,236.900 78.713 C 236.295 78.350,235.440 77.772,235.000 77.427 C 233.606 76.334,231.177 74.800,230.842 74.800 C 230.664 74.800,229.954 74.260,229.263 73.600 C 228.572 72.940,227.775 72.400,227.492 72.400 C 227.209 72.400,226.717 72.040,226.400 71.600 C 226.083 71.160,225.638 70.799,225.412 70.798 C 225.185 70.797,224.425 70.257,223.722 69.598 C 223.019 68.939,222.293 68.400,222.110 68.400 C 221.927 68.400,221.517 68.040,221.200 67.600 C 220.883 67.160,220.343 66.800,220.000 66.800 C 219.657 66.800,219.117 66.440,218.800 66.000 C 218.483 65.560,218.038 65.200,217.812 65.199 C 217.585 65.199,216.770 64.659,216.000 64.000 C 215.230 63.341,214.415 62.801,214.188 62.801 C 213.962 62.800,213.517 62.440,213.200 62.000 C 212.883 61.560,212.427 61.200,212.187 61.200 C 211.947 61.200,211.385 60.859,210.938 60.443 C 210.491 60.026,209.602 59.394,208.962 59.037 C 207.070 57.983,206.328 57.461,205.072 56.300 C 204.417 55.695,203.678 55.200,203.429 55.200 C 203.180 55.200,202.717 54.840,202.400 54.400 C 202.083 53.960,201.514 53.600,201.135 53.600 C 200.757 53.600,200.336 53.420,200.200 53.200 C 199.808 52.566,199.405 52.717,198.063 54.000 M155.400 129.600 C 155.536 129.820,156.717 130.000,158.024 130.000 C 159.341 130.000,160.400 130.178,160.400 130.400 C 160.400 130.622,161.467 130.800,162.800 130.800 C 164.133 130.800,165.200 130.978,165.200 131.200 C 165.200 131.422,166.267 131.600,167.600 131.600 C 168.933 131.600,170.000 131.778,170.000 132.000 C 170.000 132.222,171.067 132.400,172.400 132.400 C 173.733 132.400,174.800 132.578,174.800 132.800 C 174.800 133.022,175.867 133.200,177.200 133.200 C 178.533 133.200,179.600 133.378,179.600 133.600 C 179.600 133.822,180.659 134.000,181.976 134.000 C 183.283 134.000,184.464 134.180,184.600 134.400 C 184.736 134.620,185.917 134.800,187.224 134.800 C 188.541 134.800,189.600 134.978,189.600 135.200 C 189.600 135.420,190.579 135.600,191.776 135.600 C 192.973 135.600,194.064 135.780,194.200 136.000 C 194.336 136.220,195.416 136.400,196.600 136.400 C 197.784 136.400,198.864 136.580,199.000 136.800 C 199.136 137.020,200.216 137.200,201.400 137.200 C 202.584 137.200,203.664 137.380,203.800 137.600 C 203.936 137.820,204.738 138.000,205.582 138.000 C 207.212 138.000,219.200 149.078,219.200 150.585 C 219.200 150.923,219.380 151.200,219.600 151.200 C 219.820 151.200,220.000 151.549,220.000 151.976 C 220.000 152.403,220.180 152.864,220.400 153.000 C 220.620 153.136,220.800 153.687,220.800 154.224 C 220.800 154.761,220.620 155.200,220.400 155.200 C 220.180 155.200,220.000 155.740,220.000 156.400 C 220.000 157.060,219.820 157.600,219.600 157.600 C 219.380 157.600,219.200 157.782,219.200 158.004 C 219.200 158.226,216.815 160.807,213.900 163.740 C 210.985 166.673,208.335 169.461,208.012 169.936 C 207.688 170.411,207.103 170.800,206.712 170.800 C 206.320 170.800,205.999 170.935,205.997 171.100 C 205.986 172.104,200.765 172.915,200.200 172.000 C 200.064 171.780,199.589 171.600,199.145 171.600 C 198.701 171.600,197.646 170.880,196.800 170.000 C 195.278 168.416,191.200 167.542,191.200 168.800 C 191.200 169.033,189.867 169.200,188.000 169.200 C 186.133 169.200,184.800 169.367,184.800 169.600 C 184.800 169.820,184.325 170.000,183.745 170.000 C 182.564 170.000,169.200 182.824,169.200 183.958 C 169.200 184.701,201.993 217.597,202.736 217.599 C 203.030 217.599,204.487 216.340,205.973 214.800 C 207.459 213.260,208.797 212.000,208.946 212.000 C 209.095 212.000,210.180 211.055,211.356 209.900 C 213.635 207.663,216.905 204.755,219.200 202.926 C 221.001 201.491,225.200 197.152,225.200 196.726 C 225.200 196.547,225.449 196.400,225.754 196.400 C 226.058 196.400,227.476 195.275,228.904 193.900 C 230.333 192.525,232.549 190.500,233.828 189.400 C 237.648 186.117,239.363 184.627,239.896 184.129 C 240.496 183.568,240.570 181.352,240.000 181.000 C 239.780 180.864,239.600 180.403,239.600 179.976 C 239.600 179.549,239.780 179.200,240.000 179.200 C 240.220 179.200,240.400 178.671,240.400 178.024 C 240.400 177.377,240.563 176.746,240.763 176.623 C 240.962 176.500,241.249 175.500,241.400 174.400 C 241.551 173.300,241.838 172.300,242.037 172.177 C 242.237 172.054,242.400 171.524,242.400 171.000 C 242.400 170.476,242.580 169.936,242.800 169.800 C 243.020 169.664,243.200 169.023,243.200 168.376 C 243.200 167.729,243.380 167.200,243.600 167.200 C 243.820 167.200,244.000 166.570,244.000 165.800 C 244.000 165.030,244.180 164.400,244.400 164.400 C 244.620 164.400,244.800 163.860,244.800 163.200 C 244.800 162.540,244.980 162.000,245.200 162.000 C 245.420 162.000,245.600 161.460,245.600 160.800 C 245.600 160.140,245.780 159.600,246.000 159.600 C 246.220 159.600,246.400 159.060,246.400 158.400 C 246.400 157.740,246.580 157.200,246.800 157.200 C 247.020 157.200,247.200 156.761,247.200 156.224 C 247.200 155.687,247.380 155.136,247.600 155.000 C 247.820 154.864,248.000 154.223,248.000 153.576 C 248.000 152.929,248.180 152.400,248.400 152.400 C 248.620 152.400,248.800 151.871,248.800 151.224 C 248.800 150.577,248.980 149.936,249.200 149.800 C 249.420 149.664,249.600 149.023,249.600 148.376 C 249.600 147.729,249.780 147.200,250.000 147.200 C 250.220 147.200,250.400 146.660,250.400 146.000 C 250.400 145.340,250.580 144.800,250.800 144.800 C 251.020 144.800,251.200 144.260,251.200 143.600 C 251.200 142.940,251.380 142.400,251.600 142.400 C 251.820 142.400,252.000 142.151,252.000 141.846 C 252.000 140.779,255.602 139.514,260.300 138.931 C 261.235 138.814,262.000 138.576,262.000 138.400 C 262.000 138.099,262.610 137.980,267.300 137.368 C 268.345 137.231,269.200 136.958,269.200 136.760 C 269.200 136.562,270.010 136.400,271.000 136.400 C 271.990 136.400,272.800 136.238,272.800 136.040 C 272.800 135.842,273.610 135.572,274.600 135.440 C 275.590 135.308,277.210 135.092,278.200 134.960 C 279.190 134.828,280.000 134.558,280.000 134.360 C 280.000 134.162,280.799 134.000,281.776 134.000 C 282.753 134.000,283.664 133.820,283.800 133.600 C 283.936 133.380,284.757 133.200,285.624 133.200 C 286.491 133.200,287.200 133.020,287.200 132.800 C 287.200 132.580,288.010 132.400,289.000 132.400 C 289.990 132.400,290.800 132.220,290.800 132.000 C 290.800 131.058,293.741 131.772,294.985 133.015 C 297.447 135.478,297.004 137.034,292.593 141.417 C 290.499 143.498,288.627 145.200,288.433 145.200 C 288.239 145.200,286.348 146.910,284.231 149.000 C 282.114 151.090,280.294 152.800,280.187 152.800 C 279.808 152.800,276.775 155.597,274.939 157.641 C 274.465 158.169,273.406 159.140,272.586 159.800 C 267.495 163.897,267.484 163.945,270.800 167.200 C 272.120 168.496,273.200 169.657,273.200 169.781 C 273.200 170.113,275.007 172.120,278.402 175.559 C 280.053 177.232,281.850 179.230,282.396 180.000 C 286.285 185.483,287.385 185.680,291.326 181.600 C 293.026 179.840,294.597 178.400,294.817 178.400 C 295.037 178.400,296.180 177.455,297.356 176.300 C 298.533 175.145,300.539 173.300,301.815 172.200 C 303.090 171.100,306.006 168.355,308.295 166.100 C 310.583 163.845,312.637 162.000,312.859 162.000 C 313.081 162.000,313.954 161.280,314.800 160.400 C 316.257 158.883,318.400 158.169,318.400 159.200 C 318.400 159.420,318.683 159.600,319.029 159.600 C 319.837 159.600,320.800 160.563,320.800 161.371 C 320.800 161.717,320.980 162.000,321.200 162.000 C 321.420 162.000,321.600 162.900,321.600 164.000 C 321.600 165.100,321.420 166.000,321.200 166.000 C 320.980 166.000,320.800 166.540,320.800 167.200 C 320.800 167.860,320.620 168.400,320.400 168.400 C 320.180 168.400,320.000 168.940,320.000 169.600 C 320.000 170.260,319.820 170.800,319.600 170.800 C 319.380 170.800,319.200 171.340,319.200 172.000 C 319.200 172.660,319.020 173.200,318.800 173.200 C 318.580 173.200,318.400 173.729,318.400 174.376 C 318.400 175.023,318.220 175.664,318.000 175.800 C 317.780 175.936,317.600 176.577,317.600 177.224 C 317.600 177.871,317.420 178.400,317.200 178.400 C 316.980 178.400,316.800 178.940,316.800 179.600 C 316.800 180.260,316.620 180.800,316.400 180.800 C 316.180 180.800,316.000 181.340,316.000 182.000 C 316.000 182.660,315.820 183.200,315.600 183.200 C 315.380 183.200,315.200 183.740,315.200 184.400 C 315.200 185.060,315.020 185.600,314.800 185.600 C 314.580 185.600,314.400 186.140,314.400 186.800 C 314.400 187.460,314.220 188.000,314.000 188.000 C 313.780 188.000,313.600 188.392,313.600 188.872 C 313.600 189.792,312.940 192.128,312.351 193.295 C 312.158 193.677,312.000 194.341,312.000 194.771 C 312.000 195.201,311.820 195.664,311.600 195.800 C 311.380 195.936,311.200 196.476,311.200 197.000 C 311.200 197.524,311.020 198.064,310.800 198.200 C 310.580 198.336,310.400 198.776,310.400 199.178 C 310.400 199.905,309.908 200.984,308.792 202.700 C 308.357 203.370,307.823 203.600,306.704 203.600 C 305.877 203.600,305.200 203.780,305.200 204.000 C 305.200 204.220,304.491 204.400,303.624 204.400 C 302.757 204.400,301.936 204.580,301.800 204.800 C 301.664 205.020,300.753 205.200,299.776 205.200 C 298.799 205.200,298.000 205.380,298.000 205.600 C 298.000 205.820,297.190 206.000,296.200 206.000 C 295.210 206.000,294.400 206.180,294.400 206.400 C 294.400 206.620,293.680 206.800,292.800 206.800 C 291.920 206.800,291.200 206.980,291.200 207.200 C 291.200 207.420,290.300 207.600,289.200 207.600 C 288.100 207.600,287.200 207.748,287.200 207.928 C 287.200 208.109,285.715 208.473,283.900 208.737 C 282.085 209.002,279.880 209.323,279.000 209.450 C 278.120 209.578,277.229 209.844,277.020 210.041 C 276.811 210.238,275.967 210.400,275.144 210.400 C 274.321 210.400,273.536 210.580,273.400 210.800 C 273.264 211.020,272.443 211.200,271.576 211.200 C 270.709 211.200,270.000 211.380,270.000 211.600 C 270.000 211.820,269.640 212.000,269.200 212.000 C 268.760 212.000,268.400 211.820,268.400 211.600 C 268.400 210.115,265.592 212.070,260.353 217.200 C 258.668 218.850,255.905 221.460,254.212 223.000 C 252.519 224.540,250.743 226.160,250.266 226.600 C 249.788 227.040,248.408 228.208,247.199 229.196 C 244.936 231.044,243.737 232.213,242.000 234.264 C 241.450 234.914,240.370 235.883,239.600 236.418 C 238.830 236.954,237.089 238.474,235.731 239.796 C 234.373 241.118,232.713 242.650,232.043 243.200 C 230.000 244.876,230.308 245.516,235.796 251.004 C 240.594 255.801,243.200 257.419,243.200 255.600 C 243.200 255.380,243.740 255.200,244.400 255.200 C 245.060 255.200,245.600 255.020,245.600 254.800 C 245.600 254.578,246.667 254.400,248.000 254.400 C 249.333 254.400,250.400 254.578,250.400 254.800 C 250.400 255.020,250.940 255.200,251.600 255.200 C 252.260 255.200,252.800 255.351,252.800 255.536 C 252.800 255.720,253.257 256.080,253.815 256.334 C 255.108 256.923,255.689 257.399,257.735 259.547 C 258.651 260.508,262.550 264.422,266.400 268.246 C 270.250 272.070,273.736 275.537,274.148 275.952 C 274.559 276.366,278.226 280.034,282.297 284.103 C 286.368 288.172,290.238 292.042,290.896 292.704 C 293.066 294.883,306.069 307.882,307.251 309.053 C 307.887 309.684,311.520 313.350,315.323 317.200 C 319.126 321.050,322.793 324.650,323.471 325.200 C 325.519 326.859,326.800 330.046,326.800 333.481 C 326.800 338.835,326.703 338.989,317.962 347.436 C 315.893 349.436,312.568 352.766,310.573 354.836 C 306.302 359.269,305.006 360.400,304.197 360.400 C 303.869 360.400,303.600 360.580,303.600 360.800 C 303.600 361.020,302.801 361.200,301.824 361.200 C 300.847 361.200,299.926 361.396,299.778 361.635 C 299.585 361.948,299.388 361.948,299.075 361.635 C 298.836 361.396,298.063 361.200,297.358 361.200 C 294.524 361.200,293.104 359.885,257.610 324.390 C 223.381 290.162,220.800 287.403,220.800 285.046 C 220.800 284.470,220.620 284.000,220.400 284.000 C 220.180 284.000,220.000 283.280,220.000 282.400 C 220.000 281.520,220.180 280.800,220.400 280.800 C 220.620 280.800,220.800 280.371,220.800 279.846 C 220.800 279.321,221.069 278.376,221.398 277.746 C 221.726 277.116,221.996 276.377,221.998 276.103 C 222.001 275.398,210.516 264.000,209.802 264.000 C 209.476 264.000,207.500 265.710,205.410 267.800 C 203.320 269.890,201.452 271.600,201.259 271.600 C 201.066 271.600,199.913 272.545,198.697 273.700 C 197.481 274.855,195.275 276.880,193.794 278.200 C 192.313 279.520,189.638 282.042,187.850 283.803 C 186.063 285.565,183.987 287.443,183.237 287.976 C 182.487 288.509,180.207 290.549,178.171 292.511 C 176.134 294.472,174.050 296.370,173.539 296.727 C 173.028 297.085,171.157 298.823,169.382 300.589 C 167.606 302.355,165.549 304.250,164.811 304.800 C 161.888 306.977,159.509 309.608,159.722 310.425 C 159.934 311.234,158.598 317.633,157.955 318.895 C 157.760 319.277,157.600 320.042,157.600 320.595 C 157.600 321.148,157.420 321.600,157.200 321.600 C 156.980 321.600,156.800 322.140,156.800 322.800 C 156.800 323.460,156.620 324.000,156.400 324.000 C 156.180 324.000,156.000 324.439,156.000 324.976 C 156.000 325.513,155.820 326.064,155.600 326.200 C 155.380 326.336,155.200 326.876,155.200 327.400 C 155.200 327.924,155.020 328.464,154.800 328.600 C 154.580 328.736,154.400 329.276,154.400 329.800 C 154.400 330.324,154.220 330.864,154.000 331.000 C 153.780 331.136,153.600 331.766,153.600 332.400 C 153.600 333.034,153.420 333.664,153.200 333.800 C 152.980 333.936,152.800 334.577,152.800 335.224 C 152.800 335.871,152.620 336.400,152.400 336.400 C 152.180 336.400,152.000 336.940,152.000 337.600 C 152.000 338.260,151.820 338.800,151.600 338.800 C 151.380 338.800,151.200 339.340,151.200 340.000 C 151.200 340.660,151.020 341.200,150.800 341.200 C 150.580 341.200,150.400 341.639,150.400 342.176 C 150.400 342.713,150.220 343.264,150.000 343.400 C 149.780 343.536,149.600 344.076,149.600 344.600 C 149.600 345.124,149.420 345.664,149.200 345.800 C 148.980 345.936,148.800 346.399,148.800 346.829 C 148.800 348.577,146.530 351.200,145.018 351.200 C 144.458 351.200,144.000 351.380,144.000 351.600 C 144.000 351.820,143.190 352.000,142.200 352.000 C 141.210 352.000,140.400 352.180,140.400 352.400 C 140.400 352.620,139.691 352.800,138.824 352.800 C 137.957 352.800,137.136 352.980,137.000 353.200 C 136.864 353.420,135.953 353.600,134.976 353.600 C 133.999 353.600,133.200 353.780,133.200 354.000 C 133.200 354.220,132.390 354.400,131.400 354.400 C 130.410 354.400,129.600 354.580,129.600 354.800 C 129.600 355.020,128.891 355.200,128.024 355.200 C 127.157 355.200,126.336 355.380,126.200 355.600 C 126.064 355.820,125.153 356.000,124.176 356.000 C 123.199 356.000,122.400 356.180,122.400 356.400 C 122.400 356.620,121.680 356.800,120.800 356.800 C 119.920 356.800,119.200 356.980,119.200 357.200 C 119.200 357.420,118.401 357.600,117.424 357.600 C 116.447 357.600,115.551 357.756,115.432 357.947 C 115.314 358.139,113.914 358.423,112.321 358.580 C 110.728 358.737,109.092 359.044,108.685 359.261 C 107.688 359.795,104.404 358.470,104.401 357.533 C 104.401 357.167,104.198 356.799,103.952 356.717 C 102.595 356.265,104.290 351.200,105.797 351.200 C 105.926 351.200,107.599 349.622,109.515 347.693 C 111.432 345.764,113.630 343.743,114.400 343.202 C 115.170 342.660,116.190 341.853,116.667 341.409 C 117.144 340.964,118.911 339.340,120.595 337.800 C 124.120 334.574,130.360 328.485,131.111 327.537 C 131.548 326.985,131.331 326.585,129.611 324.772 C 128.505 323.607,127.600 322.501,127.600 322.316 C 127.600 322.131,126.835 321.180,125.900 320.204 C 124.965 319.228,123.120 317.223,121.800 315.748 C 113.929 306.954,112.472 305.902,110.654 307.700 C 110.154 308.195,109.236 308.960,108.615 309.400 C 107.994 309.840,106.202 311.460,104.633 313.000 C 103.065 314.540,101.083 316.325,100.229 316.967 C 99.375 317.610,97.177 319.635,95.344 321.467 C 93.511 323.300,91.912 324.800,91.791 324.800 C 91.524 324.800,90.382 325.824,86.998 329.100 C 85.577 330.475,84.177 331.600,83.887 331.600 C 83.597 331.600,83.144 331.816,82.880 332.080 C 82.507 332.453,82.400 332.453,82.400 332.080 C 82.400 331.816,82.040 331.600,81.600 331.600 C 81.160 331.600,80.800 331.432,80.800 331.227 C 80.800 331.022,80.440 330.740,80.000 330.600 C 79.560 330.460,79.200 330.088,79.200 329.773 C 79.200 329.458,79.020 329.200,78.800 329.200 C 78.578 329.200,78.400 328.133,78.400 326.800 C 78.400 325.467,78.578 324.400,78.800 324.400 C 79.020 324.400,79.200 323.950,79.200 323.400 C 79.200 322.850,79.380 322.400,79.600 322.400 C 79.820 322.400,80.000 321.860,80.000 321.200 C 80.000 320.540,80.180 320.000,80.400 320.000 C 80.620 320.000,80.800 319.460,80.800 318.800 C 80.800 318.140,80.980 317.600,81.200 317.600 C 81.420 317.600,81.600 317.071,81.600 316.424 C 81.600 315.777,81.780 315.136,82.000 315.000 C 82.220 314.864,82.400 314.234,82.400 313.600 C 82.400 312.966,82.580 312.336,82.800 312.200 C 83.020 312.064,83.200 311.423,83.200 310.776 C 83.200 310.129,83.380 309.600,83.600 309.600 C 83.820 309.600,84.000 309.060,84.000 308.400 C 84.000 307.740,84.180 307.200,84.400 307.200 C 84.620 307.200,84.800 306.761,84.800 306.224 C 84.800 305.687,84.980 305.136,85.200 305.000 C 85.420 304.864,85.600 304.324,85.600 303.800 C 85.600 303.276,85.780 302.736,86.000 302.600 C 86.220 302.464,86.400 301.834,86.400 301.200 C 86.400 300.566,86.580 299.936,86.800 299.800 C 87.020 299.664,87.200 299.023,87.200 298.376 C 87.200 297.729,87.380 297.200,87.600 297.200 C 87.820 297.200,88.000 296.660,88.000 296.000 C 88.000 295.340,88.180 294.800,88.400 294.800 C 88.620 294.800,88.800 294.260,88.800 293.600 C 88.800 292.940,88.980 292.400,89.200 292.400 C 89.420 292.400,89.600 292.068,89.600 291.661 C 89.600 289.248,92.101 287.200,95.049 287.200 C 95.792 287.200,96.400 287.020,96.400 286.800 C 96.400 286.580,97.199 286.400,98.176 286.400 C 99.153 286.400,100.064 286.220,100.200 286.000 C 100.336 285.780,101.157 285.600,102.024 285.600 C 102.891 285.600,103.600 285.420,103.600 285.200 C 103.600 284.980,104.410 284.800,105.400 284.800 C 106.390 284.800,107.200 284.638,107.200 284.440 C 107.200 284.242,108.010 283.972,109.000 283.840 C 109.990 283.708,111.610 283.492,112.600 283.360 C 113.590 283.228,114.400 282.958,114.400 282.760 C 114.400 282.562,115.199 282.400,116.176 282.400 C 117.153 282.400,118.064 282.220,118.200 282.000 C 118.336 281.780,119.157 281.600,120.024 281.600 C 120.891 281.600,121.600 281.420,121.600 281.200 C 121.600 280.980,122.410 280.800,123.400 280.800 C 124.390 280.800,125.200 280.620,125.200 280.400 C 125.200 280.180,125.999 280.000,126.976 280.000 C 127.953 280.000,128.864 279.820,129.000 279.600 C 129.136 279.380,129.867 279.200,130.624 279.200 C 131.381 279.200,132.000 279.380,132.000 279.600 C 132.000 281.464,135.264 279.880,139.014 276.197 C 141.143 274.105,143.451 271.992,144.143 271.500 C 144.834 271.009,146.851 269.165,148.624 267.403 C 150.396 265.642,152.454 263.750,153.196 263.200 C 153.939 262.650,155.908 260.846,157.573 259.191 C 159.238 257.536,161.410 255.556,162.400 254.791 C 163.390 254.026,165.587 252.005,167.283 250.300 C 168.978 248.595,170.497 247.200,170.657 247.200 C 170.816 247.200,172.250 245.895,173.842 244.300 C 175.435 242.705,177.405 240.860,178.221 240.200 C 181.384 237.642,182.400 236.703,182.400 236.339 C 182.400 235.804,150.139 203.600,149.603 203.600 C 149.361 203.600,145.833 206.930,141.763 211.000 C 137.693 215.070,134.101 218.400,133.781 218.400 C 133.462 218.400,133.200 218.580,133.200 218.800 C 133.200 219.020,132.840 219.200,132.400 219.200 C 131.960 219.200,131.600 219.380,131.600 219.600 C 131.600 219.822,130.533 220.000,129.200 220.000 C 127.867 220.000,126.800 219.822,126.800 219.600 C 126.800 219.380,126.440 219.200,126.000 219.200 C 125.560 219.200,125.200 219.020,125.200 218.800 C 125.200 218.580,124.570 218.400,123.800 218.400 L 122.400 218.400 122.400 220.400 C 122.400 221.500,122.580 222.400,122.800 222.400 C 123.029 222.400,123.200 223.600,123.200 225.200 C 123.200 226.800,123.029 228.000,122.800 228.000 C 122.580 228.000,122.400 228.410,122.400 228.912 C 122.400 229.413,122.040 230.083,121.600 230.400 C 121.160 230.717,120.800 231.162,120.800 231.389 C 120.800 231.955,114.186 238.800,113.639 238.800 C 113.398 238.800,113.200 238.980,113.200 239.200 C 113.200 239.420,112.930 239.600,112.600 239.600 C 112.270 239.600,112.000 239.780,112.000 240.000 C 112.000 240.220,111.640 240.400,111.200 240.400 C 110.760 240.400,110.400 240.580,110.400 240.800 C 110.400 241.031,109.141 241.200,107.424 241.200 C 105.787 241.200,104.336 241.020,104.200 240.800 C 104.064 240.580,103.603 240.400,103.176 240.400 C 102.749 240.400,102.400 240.220,102.400 240.000 C 102.400 239.780,102.199 239.600,101.954 239.600 C 101.709 239.600,95.434 233.548,88.009 226.150 C 74.879 213.068,73.200 211.111,73.200 208.889 C 73.200 208.426,73.020 207.936,72.800 207.800 C 72.281 207.479,72.281 205.721,72.800 205.400 C 73.020 205.264,73.200 204.741,73.200 204.238 C 73.200 202.536,74.448 200.808,78.983 196.226 C 84.313 190.841,85.474 190.373,91.279 191.261 C 93.749 191.639,94.482 191.630,94.979 191.217 C 95.665 190.648,95.833 188.800,95.200 188.800 C 94.980 188.800,94.800 188.440,94.800 188.000 C 94.800 187.560,94.620 187.200,94.400 187.200 C 94.171 187.200,94.000 186.000,94.000 184.400 C 94.000 182.800,94.171 181.600,94.400 181.600 C 94.620 181.600,94.800 181.340,94.800 181.021 C 94.800 180.283,142.709 132.400,143.448 132.400 C 143.752 132.400,144.000 132.220,144.000 132.000 C 144.000 131.780,144.360 131.600,144.800 131.600 C 145.240 131.600,145.600 131.420,145.600 131.200 C 145.600 130.980,145.960 130.800,146.400 130.800 C 146.840 130.800,147.200 130.620,147.200 130.400 C 147.200 130.180,147.920 130.000,148.800 130.000 C 149.680 130.000,150.400 129.820,150.400 129.600 C 150.400 129.378,151.459 129.200,152.776 129.200 C 154.083 129.200,155.264 129.380,155.400 129.600 M149.090 137.443 C 148.720 137.813,149.661 139.282,150.984 140.400 C 151.634 140.950,153.794 143.074,155.784 145.120 C 159.362 148.801,165.173 154.612,172.260 161.594 C 175.585 164.870,177.600 166.080,177.600 164.800 C 177.600 164.580,177.960 164.400,178.400 164.400 C 178.840 164.400,179.200 164.220,179.200 164.000 C 179.200 163.780,179.560 163.600,180.000 163.600 C 180.440 163.600,180.800 163.420,180.800 163.200 C 180.800 162.980,181.239 162.800,181.776 162.800 C 182.313 162.800,182.864 162.620,183.000 162.400 C 183.136 162.180,183.957 162.000,184.824 162.000 C 185.691 162.000,186.400 161.820,186.400 161.600 C 186.400 161.365,187.800 161.200,189.800 161.200 C 191.800 161.200,193.200 161.035,193.200 160.800 C 193.200 160.580,194.100 160.400,195.200 160.400 C 196.300 160.400,197.200 160.580,197.200 160.800 C 197.200 161.020,197.448 161.200,197.752 161.200 C 198.055 161.200,199.045 161.920,199.952 162.800 C 202.176 164.958,202.809 164.857,205.623 161.900 C 209.100 158.246,209.412 157.936,211.165 156.400 C 213.618 154.251,213.439 153.746,208.552 148.999 C 204.864 145.417,204.086 144.844,202.652 144.651 C 201.743 144.529,199.830 144.236,198.400 144.000 C 196.970 143.764,194.990 143.478,194.000 143.364 C 193.010 143.251,191.840 143.008,191.400 142.825 C 190.543 142.468,184.481 141.611,180.700 141.311 C 179.435 141.211,178.400 140.965,178.400 140.764 C 178.400 140.564,177.320 140.400,176.000 140.400 C 174.667 140.400,173.600 140.222,173.600 140.000 C 173.600 139.774,172.467 139.600,171.000 139.600 C 169.533 139.600,168.400 139.426,168.400 139.200 C 168.400 138.978,167.333 138.800,166.000 138.800 C 164.667 138.800,163.600 138.622,163.600 138.400 C 163.600 138.167,162.267 138.000,160.400 138.000 C 158.533 138.000,157.200 137.833,157.200 137.600 C 157.200 137.170,149.512 137.021,149.090 137.443 M275.200 142.800 C 274.870 143.013,274.051 143.191,273.380 143.194 C 272.709 143.197,271.989 143.362,271.780 143.559 C 271.427 143.892,270.616 144.048,266.100 144.653 C 265.165 144.778,264.400 145.042,264.400 145.240 C 264.400 145.438,263.691 145.600,262.824 145.600 C 261.957 145.600,261.136 145.780,261.000 146.000 C 260.864 146.220,260.043 146.400,259.176 146.400 C 257.692 146.400,257.600 146.470,257.600 147.600 C 257.600 148.260,257.420 148.800,257.200 148.800 C 256.980 148.800,256.800 149.340,256.800 150.000 C 256.800 150.660,256.620 151.200,256.400 151.200 C 256.180 151.200,256.000 151.740,256.000 152.400 C 256.000 153.060,255.820 153.600,255.600 153.600 C 255.380 153.600,255.200 154.219,255.200 154.976 C 255.200 155.733,255.020 156.464,254.800 156.600 C 254.580 156.736,254.400 157.276,254.400 157.800 C 254.400 158.324,254.220 158.864,254.000 159.000 C 253.780 159.136,253.600 159.687,253.600 160.224 C 253.600 160.761,253.420 161.200,253.200 161.200 C 252.980 161.200,252.800 161.740,252.800 162.400 C 252.800 163.060,252.620 163.600,252.400 163.600 C 252.180 163.600,252.000 164.140,252.000 164.800 C 252.000 165.460,251.820 166.000,251.600 166.000 C 251.380 166.000,251.200 166.529,251.200 167.176 C 251.200 167.823,251.020 168.464,250.800 168.600 C 250.580 168.736,250.400 169.366,250.400 170.000 C 250.400 170.634,250.220 171.264,250.000 171.400 C 249.780 171.536,249.600 172.177,249.600 172.824 C 249.600 173.471,249.420 174.000,249.200 174.000 C 248.980 174.000,248.800 174.439,248.800 174.976 C 248.800 175.513,248.620 176.064,248.400 176.200 C 248.180 176.336,248.000 177.247,248.000 178.224 C 248.000 179.201,248.180 180.000,248.400 180.000 C 248.620 180.000,248.800 180.360,248.800 180.800 C 248.800 181.240,248.980 181.600,249.200 181.600 C 249.420 181.600,249.600 182.240,249.600 183.022 C 249.600 184.526,248.299 186.005,242.584 191.000 C 241.325 192.100,239.333 193.945,238.156 195.100 C 236.980 196.255,235.858 197.200,235.662 197.200 C 235.467 197.200,233.477 199.000,231.239 201.200 C 229.002 203.400,227.095 205.200,227.001 205.200 C 226.827 205.200,224.245 207.581,219.952 211.700 C 218.634 212.965,217.403 214.000,217.218 214.000 C 217.032 214.000,215.148 215.710,213.031 217.800 C 210.914 219.890,209.005 221.600,208.791 221.600 C 206.922 221.600,208.750 224.007,216.410 231.629 C 224.495 239.675,225.182 240.177,226.353 238.889 C 226.709 238.497,227.810 237.552,228.800 236.789 C 229.790 236.025,231.950 234.045,233.600 232.389 C 235.250 230.733,237.020 229.085,237.534 228.727 C 238.048 228.370,240.123 226.485,242.146 224.538 C 244.168 222.592,246.305 220.686,246.893 220.303 C 247.482 219.919,249.582 218.029,251.561 216.103 C 253.540 214.176,256.341 211.520,257.787 210.200 C 259.232 208.880,261.310 206.957,262.406 205.927 C 263.501 204.898,264.758 203.940,265.198 203.800 C 265.639 203.661,266.000 203.378,266.000 203.173 C 266.000 202.414,269.002 202.770,269.600 203.600 C 270.206 204.440,271.778 204.682,272.200 204.000 C 272.336 203.780,273.146 203.600,274.000 203.600 C 274.854 203.600,275.664 203.420,275.800 203.200 C 275.936 202.980,276.757 202.800,277.624 202.800 C 278.491 202.800,279.200 202.620,279.200 202.400 C 279.200 202.180,279.999 202.000,280.976 202.000 C 281.953 202.000,282.864 201.820,283.000 201.600 C 283.136 201.380,283.957 201.200,284.824 201.200 C 285.691 201.200,286.400 201.020,286.400 200.800 C 286.400 200.580,287.210 200.400,288.200 200.400 C 289.190 200.400,290.000 200.220,290.000 200.000 C 290.000 199.780,290.709 199.600,291.576 199.600 C 292.443 199.600,293.264 199.420,293.400 199.200 C 293.536 198.980,294.447 198.800,295.424 198.800 C 296.401 198.800,297.200 198.620,297.200 198.400 C 297.200 198.180,297.909 198.000,298.776 198.000 C 299.643 198.000,300.464 197.820,300.600 197.600 C 300.736 197.380,301.389 197.200,302.052 197.200 C 303.529 197.200,304.400 196.394,304.400 195.029 C 304.400 194.463,304.580 194.000,304.800 194.000 C 305.020 194.000,305.200 193.548,305.200 192.995 C 305.200 192.442,305.362 191.677,305.561 191.295 C 305.760 190.913,306.137 189.790,306.400 188.800 C 306.663 187.810,307.025 186.711,307.206 186.359 C 307.386 186.006,307.659 184.879,307.813 183.854 C 307.967 182.829,308.252 181.892,308.446 181.771 C 308.641 181.651,308.800 181.023,308.800 180.376 C 308.800 179.729,308.980 179.200,309.200 179.200 C 309.420 179.200,309.600 178.390,309.600 177.400 C 309.600 174.997,308.963 175.056,306.309 177.705 C 305.149 178.862,303.570 180.256,302.800 180.802 C 302.030 181.347,299.752 183.415,297.738 185.397 C 292.873 190.183,291.695 191.200,291.017 191.200 C 290.703 191.200,290.336 191.380,290.200 191.600 C 290.064 191.820,288.894 192.000,287.600 192.000 C 286.306 192.000,285.136 191.820,285.000 191.600 C 284.864 191.380,284.403 191.200,283.976 191.200 C 283.549 191.200,283.200 191.020,283.200 190.800 C 283.200 190.580,282.922 190.400,282.582 190.400 C 281.871 190.400,280.614 189.213,279.196 187.200 C 278.653 186.430,277.307 184.864,276.205 183.720 C 275.102 182.576,273.300 180.627,272.200 179.389 C 271.100 178.151,268.760 175.664,267.000 173.861 C 265.240 172.058,263.545 170.092,263.232 169.492 C 262.920 168.891,262.515 168.400,262.332 168.400 C 262.150 168.400,262.000 168.040,262.000 167.600 C 262.000 167.160,261.820 166.800,261.600 166.800 C 261.371 166.800,261.200 165.600,261.200 164.000 C 261.200 162.400,261.371 161.200,261.600 161.200 C 261.820 161.200,262.000 160.912,262.000 160.560 C 262.000 160.209,262.585 159.393,263.300 158.748 C 272.371 150.567,279.499 143.497,279.295 142.885 C 279.102 142.305,276.063 142.242,275.200 142.800 M137.510 147.500 C 135.074 149.865,131.803 153.139,130.241 154.775 C 128.678 156.412,126.431 158.662,125.247 159.775 C 117.231 167.313,101.200 183.757,101.200 184.441 C 101.200 184.910,102.550 186.541,104.500 188.428 C 106.315 190.185,107.953 191.779,108.141 191.971 C 110.499 194.381,124.080 207.914,124.473 208.245 C 124.763 208.490,125.630 209.431,126.400 210.336 C 129.180 213.604,127.878 214.593,150.266 192.200 C 161.154 181.310,170.228 172.400,170.431 172.400 C 172.137 172.400,170.446 170.033,164.700 164.375 C 161.345 161.072,158.472 158.241,158.316 158.085 C 158.160 157.928,154.788 154.515,150.824 150.500 C 146.032 145.647,143.335 143.200,142.777 143.200 C 142.253 143.200,140.282 144.809,137.510 147.500 M159.033 193.377 C 156.925 195.455,155.200 197.428,155.200 197.762 C 155.200 198.412,157.812 201.350,161.939 205.343 C 163.336 206.694,167.243 210.590,170.621 214.000 C 174.000 217.410,177.448 220.880,178.282 221.711 C 181.326 224.743,193.055 236.453,195.048 238.450 C 197.699 241.106,208.894 252.301,211.550 254.952 C 222.584 265.963,226.829 270.000,227.371 270.000 C 228.475 270.000,235.600 262.558,235.600 261.405 C 235.600 260.852,235.444 260.400,235.253 260.400 C 234.938 260.400,229.667 255.226,220.923 246.333 C 219.121 244.500,215.431 240.808,212.723 238.129 C 210.015 235.450,206.325 231.760,204.523 229.929 C 202.721 228.098,199.031 224.416,196.323 221.746 C 193.615 219.077,189.932 215.387,188.139 213.546 C 186.345 211.706,182.475 207.830,179.539 204.934 C 176.602 202.037,172.737 198.167,170.950 196.334 C 163.155 188.340,163.946 188.536,159.033 193.377 M97.902 198.000 C 95.194 200.618,93.385 201.143,92.043 199.700 C 89.414 196.874,87.474 197.263,83.375 201.437 C 80.175 204.695,80.000 204.964,80.000 206.632 L 80.000 208.390 92.318 220.695 C 108.260 236.620,106.590 235.821,112.205 230.205 C 115.825 226.585,117.239 224.000,115.600 224.000 C 115.380 224.000,115.200 223.680,115.200 223.288 C 115.200 222.897,114.840 222.317,114.400 222.000 C 113.960 221.683,113.600 221.118,113.600 220.745 C 113.600 220.372,113.375 219.962,113.100 219.833 C 112.700 219.647,112.700 219.553,113.100 219.367 C 113.375 219.238,113.600 218.868,113.600 218.545 C 113.600 218.221,114.680 216.896,116.000 215.600 C 118.883 212.770,118.867 212.934,116.500 210.639 C 112.661 206.916,107.723 201.933,104.800 198.834 C 101.178 194.994,101.031 194.976,97.902 198.000 M183.845 244.600 C 182.379 246.030,181.050 247.201,180.890 247.202 C 180.579 247.204,176.781 250.854,174.277 253.557 C 173.440 254.461,172.580 255.200,172.367 255.200 C 172.154 255.200,171.193 255.965,170.232 256.900 C 169.272 257.835,167.264 259.680,165.771 261.000 C 164.278 262.320,161.403 265.036,159.382 267.035 C 157.360 269.034,155.097 271.102,154.353 271.630 C 153.609 272.157,152.258 273.312,151.351 274.195 C 150.445 275.078,148.672 276.700,147.411 277.800 C 146.151 278.900,143.347 281.539,141.181 283.665 C 139.015 285.790,136.693 287.854,136.022 288.251 C 135.350 288.648,134.800 289.114,134.800 289.286 C 134.800 289.459,134.170 289.600,133.400 289.600 C 132.630 289.600,132.000 289.420,132.000 289.200 C 132.000 288.980,131.770 288.800,131.488 288.800 C 131.207 288.800,130.717 288.440,130.400 288.000 C 129.789 287.153,126.800 286.821,126.800 287.600 C 126.800 287.820,125.990 288.000,125.000 288.000 C 124.010 288.000,123.200 288.180,123.200 288.400 C 123.200 288.620,122.491 288.800,121.624 288.800 C 120.757 288.800,119.936 288.980,119.800 289.200 C 119.664 289.420,118.753 289.600,117.776 289.600 C 116.799 289.600,116.000 289.780,116.000 290.000 C 116.000 290.220,115.190 290.400,114.200 290.400 C 113.210 290.400,112.400 290.562,112.400 290.760 C 112.400 290.958,111.635 291.208,110.700 291.316 C 107.320 291.706,102.983 292.465,102.200 292.804 C 101.760 292.995,100.770 293.237,100.000 293.343 C 97.013 293.755,95.806 294.223,95.682 295.016 C 95.614 295.447,95.409 296.160,95.225 296.600 C 95.041 297.040,94.673 298.210,94.407 299.200 C 94.140 300.190,93.760 301.313,93.561 301.695 C 93.362 302.077,93.200 302.842,93.200 303.395 C 93.200 303.948,93.059 304.400,92.886 304.400 C 92.713 304.400,92.349 305.435,92.076 306.700 C 91.803 307.965,91.474 309.495,91.345 310.100 C 91.215 310.705,90.950 311.200,90.755 311.200 C 90.560 311.200,90.400 311.729,90.400 312.376 C 90.400 313.023,90.220 313.664,90.000 313.800 C 89.780 313.936,89.600 314.386,89.600 314.800 C 89.600 315.676,90.478 316.365,90.710 315.671 C 90.796 315.412,91.107 315.200,91.400 315.200 C 91.694 315.200,93.637 313.535,95.719 311.500 C 97.800 309.465,100.014 307.440,100.639 307.000 C 101.874 306.129,104.248 304.093,106.235 302.200 C 108.466 300.074,109.190 299.600,110.205 299.600 C 110.752 299.600,111.200 299.420,111.200 299.200 C 111.200 298.980,111.639 298.800,112.176 298.800 C 112.713 298.800,113.264 298.980,113.400 299.200 C 113.536 299.420,114.177 299.600,114.824 299.600 C 115.471 299.600,116.000 299.780,116.000 300.000 C 116.000 300.220,116.273 300.400,116.606 300.400 C 117.156 300.400,123.200 306.088,123.200 306.605 C 123.200 306.842,124.129 307.862,128.401 312.320 C 129.941 313.925,131.200 315.388,131.200 315.571 C 131.200 315.753,132.550 317.278,134.200 318.961 C 135.850 320.643,137.200 322.195,137.200 322.410 C 137.200 322.624,137.380 322.800,137.600 322.800 C 137.820 322.800,138.000 323.160,138.000 323.600 C 138.000 324.040,138.180 324.400,138.400 324.400 C 138.622 324.400,138.800 325.467,138.800 326.800 C 138.800 328.133,138.622 329.200,138.400 329.200 C 138.180 329.200,138.000 329.560,138.000 330.000 C 138.000 330.440,137.820 330.800,137.600 330.800 C 137.380 330.800,137.200 331.074,137.200 331.409 C 137.200 332.098,133.714 335.704,131.600 337.201 C 130.830 337.746,128.609 339.768,126.664 341.695 C 124.720 343.621,122.635 345.489,122.031 345.845 C 120.763 346.594,119.866 347.860,120.210 348.416 C 120.526 348.927,124.400 348.912,124.400 348.400 C 124.400 348.180,125.120 348.000,126.000 348.000 C 126.880 348.000,127.600 347.820,127.600 347.600 C 127.600 347.380,128.500 347.200,129.600 347.200 C 130.700 347.200,131.600 347.020,131.600 346.800 C 131.600 346.580,132.320 346.400,133.200 346.400 C 134.080 346.400,134.800 346.220,134.800 346.000 C 134.800 345.780,135.599 345.600,136.576 345.600 C 137.553 345.600,138.464 345.420,138.600 345.200 C 138.736 344.980,139.431 344.800,140.144 344.800 C 141.662 344.800,142.400 344.193,142.400 342.944 C 142.400 342.451,142.580 341.936,142.800 341.800 C 143.020 341.664,143.200 341.113,143.200 340.576 C 143.200 340.039,143.380 339.600,143.600 339.600 C 143.820 339.600,144.000 339.060,144.000 338.400 C 144.000 337.740,144.180 337.200,144.400 337.200 C 144.620 337.200,144.800 336.660,144.800 336.000 C 144.800 335.340,144.980 334.800,145.200 334.800 C 145.420 334.800,145.600 334.260,145.600 333.600 C 145.600 332.940,145.780 332.400,146.000 332.400 C 146.220 332.400,146.400 331.860,146.400 331.200 C 146.400 330.540,146.580 330.000,146.800 330.000 C 147.020 330.000,147.200 329.471,147.200 328.824 C 147.200 328.177,147.380 327.536,147.600 327.400 C 147.820 327.264,148.000 326.634,148.000 326.000 C 148.000 325.366,148.180 324.736,148.400 324.600 C 148.620 324.464,148.800 323.913,148.800 323.376 C 148.800 322.839,148.980 322.400,149.200 322.400 C 149.420 322.400,149.600 321.860,149.600 321.200 C 149.600 320.540,149.780 320.000,150.000 320.000 C 150.220 320.000,150.400 319.460,150.400 318.800 C 150.400 318.140,150.580 317.600,150.800 317.600 C 151.020 317.600,151.200 317.060,151.200 316.400 C 151.200 315.740,151.380 315.200,151.600 315.200 C 152.122 315.200,152.122 310.923,151.600 310.600 C 150.319 309.808,151.210 307.729,153.842 305.369 C 155.295 304.066,158.130 301.379,160.142 299.397 C 162.154 297.415,164.430 295.348,165.200 294.804 C 165.970 294.259,167.157 293.270,167.838 292.607 C 168.519 291.943,170.481 290.140,172.197 288.600 C 173.914 287.060,176.776 284.358,178.559 282.597 C 180.342 280.835,182.409 278.960,183.154 278.431 C 183.899 277.902,186.059 275.982,187.954 274.164 C 189.849 272.347,191.940 270.443,192.600 269.933 C 193.260 269.423,195.150 267.651,196.800 265.995 C 198.450 264.339,200.430 262.542,201.200 262.001 C 205.609 258.904,205.685 259.106,196.588 249.900 C 187.317 240.519,187.815 240.726,183.845 244.600 M236.700 271.289 L 227.600 280.480 227.621 282.540 L 227.643 284.600 231.249 288.000 C 233.232 289.870,236.508 293.065,238.528 295.101 C 242.664 299.269,249.384 305.993,254.899 311.484 C 256.935 313.510,260.613 317.200,263.073 319.684 C 265.533 322.168,269.223 325.854,271.273 327.876 C 273.323 329.897,277.014 333.587,279.475 336.076 C 281.936 338.564,285.806 342.437,288.075 344.683 C 290.344 346.928,293.370 350.022,294.800 351.557 C 297.322 354.266,297.459 354.350,299.365 354.375 L 301.331 354.400 308.201 347.500 C 311.980 343.705,316.001 339.728,317.136 338.661 C 318.271 337.595,319.200 336.470,319.200 336.161 C 319.200 335.853,319.380 335.600,319.600 335.600 C 319.820 335.600,319.990 334.745,319.979 333.700 C 319.958 331.834,319.893 331.739,316.352 328.400 C 314.369 326.530,311.634 323.874,310.273 322.497 C 308.913 321.121,305.213 317.408,302.051 314.246 C 298.889 311.085,295.222 307.418,293.902 306.098 C 292.582 304.778,288.892 301.088,285.702 297.898 C 282.512 294.708,278.840 291.041,277.541 289.749 C 276.243 288.457,272.589 284.790,269.421 281.600 C 266.254 278.410,262.344 274.502,260.731 272.915 C 259.119 271.328,256.090 268.235,254.000 266.043 L 250.200 262.056 248.000 262.077 L 245.800 262.098 236.700 271.289 " stroke="none" fill="#040404" fill-rule="evenodd"></path><path id="path1" d="" stroke="none" fill="#080404" fill-rule="evenodd"></path><path id="path2" d="" stroke="none" fill="#080404" fill-rule="evenodd"></path><path id="path3" d="" stroke="none" fill="#080404" fill-rule="evenodd"></path><path id="path4" d="" stroke="none" fill="#080404" fill-rule="evenodd"></path></g></svg>