<svg id="svg" version="1.1" xmlns="http://www.w3.org/2000/svg" xmlns:xlink="http://www.w3.org/1999/xlink" width="400" height="269.40000000000003" viewBox="0, 0, 400,269.40000000000003"><g id="svgg"><path id="path0" d="M241.500 91.305 C 230.516 93.725,225.528 106.007,231.710 115.412 C 232.051 115.932,229.974 120.137,220.205 138.700 C 216.768 145.231,215.188 148.418,215.297 148.596 C 215.380 148.729,217.999 148.800,222.807 148.800 L 230.191 148.800 230.556 148.050 C 230.757 147.638,231.834 145.545,232.949 143.400 C 234.064 141.255,235.724 138.058,236.638 136.295 C 237.552 134.532,239.598 130.595,241.185 127.545 L 244.070 122.000 245.285 121.999 C 256.227 121.986,263.376 109.536,258.255 99.412 C 257.109 97.146,257.048 97.115,256.356 98.451 C 250.286 110.162,250.805 109.792,244.817 106.672 C 240.670 104.511,240.662 104.505,240.172 103.545 C 239.294 101.824,239.287 101.844,243.941 93.050 L 245.026 91.000 243.863 91.020 C 243.223 91.031,242.160 91.159,241.500 91.305 M172.067 92.684 C 169.500 93.172,168.022 93.799,159.200 98.141 C 154.415 100.496,148.908 103.195,146.962 104.138 L 143.424 105.853 144.685 108.376 C 146.490 111.986,146.555 111.532,144.056 112.775 C 142.878 113.361,141.887 113.764,141.853 113.670 C 141.508 112.689,140.143 110.613,139.606 110.250 C 137.807 109.033,136.817 109.159,132.800 111.117 C 126.887 113.998,126.751 114.684,130.566 122.400 C 134.642 130.647,135.063 130.868,141.051 127.914 C 146.000 125.474,146.843 123.936,145.144 120.444 L 144.630 119.388 146.813 118.293 L 148.996 117.198 150.321 119.849 C 151.049 121.307,151.667 122.524,151.693 122.554 C 151.719 122.583,152.766 122.111,154.020 121.505 C 156.846 120.140,156.534 120.084,157.600 122.143 C 158.670 124.208,159.615 125.040,161.324 125.423 L 162.457 125.676 168.165 137.241 L 173.873 148.806 179.249 148.753 L 184.625 148.700 184.926 148.200 C 185.215 147.718,185.043 147.331,180.089 137.300 C 177.264 131.580,174.286 125.510,173.471 123.810 L 171.990 120.720 172.295 119.824 C 172.841 118.223,172.703 116.892,171.799 115.022 C 170.839 113.038,170.685 113.336,173.354 112.021 L 175.544 110.942 174.265 108.264 C 172.787 105.169,172.756 105.399,174.754 104.635 C 179.057 102.991,182.941 102.921,186.221 104.426 L 187.543 105.033 189.389 104.106 C 191.498 103.046,191.448 103.290,190.042 100.900 C 186.318 94.574,179.213 91.326,172.067 92.684 M192.917 141.945 L 185.965 151.500 161.475 151.600 L 136.985 151.700 130.390 166.400 C 126.763 174.485,123.446 181.865,123.018 182.800 C 120.223 188.917,114.400 202.017,114.400 202.189 C 114.400 202.331,119.811 202.395,131.526 202.391 C 140.945 202.388,148.696 202.429,148.750 202.483 C 148.804 202.537,148.581 202.923,148.254 203.341 C 147.927 203.758,144.617 208.285,140.897 213.400 C 137.178 218.515,133.787 223.173,133.361 223.750 L 132.587 224.800 142.794 224.800 L 153.000 224.800 153.000 219.141 L 153.000 213.482 157.061 207.891 C 159.295 204.816,167.510 193.525,175.317 182.800 C 183.125 172.075,191.850 160.085,194.706 156.155 C 197.563 152.226,199.945 149.010,200.000 149.010 C 200.055 149.010,202.437 152.226,205.294 156.155 C 208.150 160.085,216.876 172.075,224.683 182.800 C 232.491 193.525,240.706 204.816,242.939 207.891 L 247.000 213.482 247.000 219.141 L 247.000 224.800 257.206 224.800 L 267.413 224.800 266.639 223.750 C 266.213 223.173,262.822 218.515,259.103 213.400 C 255.383 208.285,252.073 203.758,251.746 203.341 C 251.419 202.923,251.196 202.537,251.250 202.483 C 251.304 202.429,259.055 202.388,268.474 202.391 C 280.189 202.395,285.600 202.331,285.600 202.189 C 285.600 202.017,279.777 188.917,276.982 182.800 C 276.554 181.865,273.237 174.485,269.610 166.400 L 263.015 151.700 238.526 151.600 L 214.038 151.500 207.122 142.001 C 203.318 136.776,200.129 132.476,200.037 132.446 C 199.944 132.415,196.740 136.689,192.917 141.945 M187.300 247.725 C 186.640 247.760,184.120 247.887,181.700 248.008 C 179.280 248.129,176.985 248.264,176.600 248.306 C 176.215 248.349,175.090 248.435,174.100 248.498 C 144.071 250.414,106.927 259.250,88.500 268.860 L 87.500 269.381 98.506 269.391 L 109.511 269.400 112.823 268.707 C 119.861 267.235,128.758 265.687,136.500 264.587 C 144.417 263.462,149.756 262.850,159.900 261.902 C 160.450 261.851,162.025 261.720,163.400 261.611 C 176.615 260.570,184.001 260.306,200.000 260.306 C 215.999 260.306,223.385 260.570,236.600 261.611 C 239.289 261.824,239.432 261.836,244.400 262.304 C 258.332 263.615,274.157 265.984,287.177 268.707 L 290.489 269.400 301.494 269.391 L 312.500 269.381 311.500 268.860 C 293.029 259.227,257.908 250.854,226.100 248.501 C 223.510 248.309,221.578 248.172,218.700 247.976 C 215.944 247.788,190.065 247.582,187.300 247.725 " stroke="none" fill="#04345c" fill-rule="evenodd"></path><path id="path1" d="M0.000 134.700 L 0.000 269.400 43.575 269.400 L 87.150 269.400 89.525 268.279 C 109.840 258.690,137.167 251.932,167.900 248.898 C 187.668 246.946,212.332 246.946,232.100 248.898 C 262.833 251.932,290.160 258.690,310.475 268.279 L 312.850 269.400 356.425 269.400 L 400.000 269.400 400.000 134.700 L 400.000 0.000 200.000 0.000 L 0.000 0.000 0.000 134.700 M245.000 91.017 C 245.000 91.137,243.867 93.401,242.482 96.050 C 238.652 103.375,238.663 103.420,244.882 106.609 C 248.821 108.628,249.379 108.740,250.884 107.810 C 251.594 107.371,251.530 107.479,254.602 101.600 C 257.219 96.593,256.930 97.031,257.297 97.515 C 264.573 107.097,257.033 122.089,244.885 122.193 L 244.070 122.200 242.708 124.850 C 241.958 126.308,240.963 128.220,240.497 129.100 C 239.406 131.162,238.051 133.768,233.791 142.000 C 231.884 145.685,230.229 148.766,230.112 148.847 C 229.668 149.155,215.909 149.025,215.488 148.709 C 215.058 148.386,215.052 148.399,219.117 140.602 C 220.007 138.896,222.110 134.845,223.792 131.600 C 225.474 128.355,227.321 124.800,227.897 123.700 C 228.474 122.600,229.629 120.389,230.465 118.786 L 231.985 115.871 231.475 115.120 C 225.078 105.706,231.308 92.327,242.700 91.014 C 244.753 90.777,245.000 90.778,245.000 91.017 M179.600 92.731 C 184.106 93.828,188.115 97.120,190.694 101.841 L 191.427 103.183 189.462 104.169 L 187.497 105.155 186.324 104.562 C 182.996 102.879,176.558 103.273,173.259 105.360 C 173.086 105.469,173.382 106.262,174.310 108.174 C 175.829 111.305,175.951 110.846,173.242 112.181 L 171.048 113.262 171.874 114.981 C 172.820 116.949,172.993 118.715,172.361 119.953 L 172.027 120.607 173.690 124.053 C 174.604 125.949,177.525 131.904,180.181 137.286 C 185.658 148.384,185.420 147.798,184.728 148.490 L 184.218 149.000 179.225 149.000 C 174.440 149.000,173.600 148.941,173.600 148.606 C 173.600 148.522,171.161 143.514,168.180 137.477 C 165.200 131.440,162.682 126.297,162.585 126.050 C 162.479 125.776,162.241 125.600,161.978 125.600 C 160.254 125.600,158.614 124.311,157.421 122.017 L 156.592 120.424 155.846 120.735 C 155.436 120.907,154.329 121.434,153.386 121.907 L 151.672 122.768 150.386 120.166 C 148.821 117.000,149.207 117.192,146.817 118.392 L 144.816 119.396 145.408 120.787 C 146.880 124.246,146.023 125.608,140.791 128.117 C 135.027 130.882,134.522 130.602,130.493 122.400 C 126.672 114.623,126.798 113.976,132.700 111.057 C 137.632 108.617,139.640 108.927,141.292 112.382 C 141.990 113.843,141.757 113.826,144.204 112.598 L 146.201 111.596 144.800 108.801 C 144.030 107.263,143.400 105.954,143.400 105.890 C 143.400 105.785,146.964 104.016,162.400 96.460 C 171.041 92.231,174.482 91.485,179.600 92.731 M207.155 141.900 L 214.142 151.500 238.584 151.551 L 263.027 151.602 263.836 153.351 C 264.281 154.313,265.391 156.765,266.301 158.800 C 267.211 160.835,269.190 165.245,270.699 168.600 C 286.729 204.258,285.800 202.186,285.800 202.303 C 285.800 202.355,278.029 202.421,268.531 202.449 L 251.261 202.500 259.331 213.588 C 263.769 219.686,267.400 224.703,267.400 224.738 C 267.400 224.772,262.765 224.800,257.100 224.800 L 246.800 224.800 246.797 219.050 L 246.794 213.300 241.466 206.000 C 238.535 201.985,234.997 197.125,233.604 195.200 C 232.210 193.275,225.235 183.690,218.103 173.900 C 210.972 164.110,204.011 154.548,202.635 152.650 C 201.259 150.753,200.073 149.200,200.000 149.200 C 199.927 149.200,198.741 150.753,197.365 152.650 C 195.988 154.548,189.027 164.110,181.896 173.900 C 174.765 183.690,167.790 193.275,166.397 195.200 C 165.003 197.125,161.465 201.985,158.534 206.000 L 153.206 213.300 153.203 219.050 L 153.200 224.800 142.900 224.800 C 137.235 224.800,132.600 224.772,132.600 224.738 C 132.600 224.703,136.231 219.686,140.669 213.588 L 148.739 202.500 131.469 202.449 C 121.971 202.421,114.200 202.355,114.200 202.303 C 114.200 202.186,113.271 204.258,129.301 168.600 C 130.810 165.245,132.789 160.835,133.699 158.800 C 134.609 156.765,135.719 154.313,136.164 153.351 L 136.973 151.602 161.417 151.551 L 185.860 151.500 192.880 141.851 C 196.741 136.545,199.960 132.225,200.034 132.251 C 200.107 132.278,203.312 136.620,207.155 141.900 M197.700 199.200 L 197.700 207.500 191.000 207.500 L 184.300 207.500 184.248 199.147 L 184.196 190.795 190.948 190.847 L 197.700 190.900 197.700 199.200 M215.752 199.150 L 215.700 207.500 209.000 207.500 L 202.300 207.500 202.248 199.400 C 202.219 194.945,202.239 191.188,202.291 191.050 C 202.366 190.857,203.910 190.800,209.096 190.800 L 215.804 190.800 215.752 199.150 M197.700 218.800 L 197.700 227.100 191.000 227.100 L 184.300 227.100 184.248 219.000 C 184.219 214.545,184.239 210.787,184.292 210.648 C 184.369 210.449,185.825 210.406,191.045 210.447 L 197.700 210.500 197.700 218.800 M215.700 218.800 L 215.700 227.100 209.000 227.100 L 202.300 227.100 202.248 219.000 C 202.219 214.545,202.239 210.787,202.292 210.648 C 202.369 210.449,203.825 210.406,209.045 210.447 L 215.700 210.500 215.700 218.800 M195.594 260.262 C 195.542 260.308,192.350 260.401,188.500 260.468 C 182.450 260.574,173.247 260.963,169.000 261.292 C 168.285 261.347,166.935 261.443,166.000 261.504 C 164.383 261.611,163.589 261.673,160.950 261.901 C 160.317 261.955,159.238 262.048,158.550 262.107 C 154.384 262.464,144.522 263.593,139.300 264.311 C 130.003 265.588,124.026 266.582,115.607 268.251 L 110.314 269.300 155.157 269.350 C 179.821 269.378,220.179 269.378,244.843 269.350 L 289.686 269.300 284.393 268.251 C 271.514 265.698,258.098 263.742,243.600 262.304 C 241.985 262.143,236.925 261.719,234.100 261.507 C 223.908 260.742,196.067 259.841,195.594 260.262 " stroke="none" fill="#fbfbfb" fill-rule="evenodd"></path><path id="path2" d="M184.400 199.200 L 184.400 207.400 191.000 207.400 L 197.600 207.400 197.600 199.200 L 197.600 191.000 191.000 191.000 L 184.400 191.000 184.400 199.200 M202.400 199.200 L 202.400 207.400 209.000 207.400 L 215.600 207.400 215.600 199.200 L 215.600 191.000 209.000 191.000 L 202.400 191.000 202.400 199.200 M184.400 218.800 L 184.400 227.000 191.000 227.000 L 197.600 227.000 197.600 218.800 L 197.600 210.600 191.000 210.600 L 184.400 210.600 184.400 218.800 M202.400 218.800 L 202.400 227.000 209.000 227.000 L 215.600 227.000 215.600 218.800 L 215.600 210.600 209.000 210.600 L 202.400 210.600 202.400 218.800 " stroke="none" fill="#fb7305" fill-rule="evenodd"></path><path id="path3" d="M174.754 92.345 C 175.113 92.389,175.653 92.389,175.954 92.343 C 176.254 92.297,175.960 92.261,175.300 92.262 C 174.640 92.263,174.394 92.300,174.754 92.345 M233.291 95.650 L 232.500 96.500 233.350 95.709 C 234.140 94.974,234.292 94.800,234.141 94.800 C 234.108 94.800,233.725 95.183,233.291 95.650 M186.900 97.000 C 187.553 97.660,188.132 98.200,188.187 98.200 C 188.242 98.200,187.753 97.660,187.100 97.000 C 186.447 96.340,185.868 95.800,185.813 95.800 C 185.758 95.800,186.247 96.340,186.900 97.000 M241.100 98.400 C 240.929 98.730,240.835 99.000,240.890 99.000 C 240.945 99.000,241.129 98.730,241.300 98.400 C 241.471 98.070,241.565 97.800,241.510 97.800 C 241.455 97.800,241.271 98.070,241.100 98.400 M149.400 102.800 C 149.015 103.011,148.790 103.183,148.900 103.183 C 149.010 103.183,149.415 103.011,149.800 102.800 C 150.185 102.589,150.410 102.417,150.300 102.417 C 150.190 102.417,149.785 102.589,149.400 102.800 M253.000 104.600 C 252.776 105.040,252.637 105.400,252.692 105.400 C 252.747 105.400,252.976 105.040,253.200 104.600 C 253.424 104.160,253.563 103.800,253.508 103.800 C 253.453 103.800,253.224 104.160,253.000 104.600 M260.069 106.500 C 260.069 107.380,260.104 107.715,260.147 107.245 C 260.189 106.774,260.188 106.054,260.145 105.645 C 260.102 105.235,260.068 105.620,260.069 106.500 M228.846 106.600 C 228.846 106.985,228.888 107.142,228.938 106.950 C 228.988 106.758,228.988 106.442,228.938 106.250 C 228.888 106.058,228.846 106.215,228.846 106.600 M127.850 116.100 C 127.853 116.540,127.894 116.696,127.941 116.448 C 127.989 116.199,127.987 115.839,127.937 115.648 C 127.887 115.456,127.848 115.660,127.850 116.100 M172.654 118.000 C 172.654 118.495,172.693 118.697,172.741 118.450 C 172.789 118.203,172.789 117.797,172.741 117.550 C 172.693 117.303,172.654 117.505,172.654 118.000 M244.450 122.143 C 244.753 122.189,245.248 122.189,245.550 122.143 C 245.853 122.097,245.605 122.060,245.000 122.060 C 244.395 122.060,244.148 122.097,244.450 122.143 M179.614 136.300 C 179.614 136.410,179.743 136.725,179.900 137.000 C 180.057 137.275,180.186 137.410,180.186 137.300 C 180.186 137.190,180.057 136.875,179.900 136.600 C 179.743 136.325,179.614 136.190,179.614 136.300 M176.438 148.949 C 177.834 148.984,180.174 148.984,181.638 148.950 C 183.102 148.915,181.960 148.887,179.100 148.887 C 176.240 148.887,175.042 148.915,176.438 148.949 M219.363 148.950 C 221.378 148.982,224.618 148.982,226.563 148.950 C 228.508 148.917,226.860 148.890,222.900 148.890 C 218.940 148.890,217.348 148.917,219.363 148.950 M153.088 219.100 C 153.088 222.290,153.116 223.567,153.150 221.938 C 153.183 220.309,153.183 217.699,153.149 216.138 C 153.116 214.577,153.088 215.910,153.088 219.100 M246.888 219.100 C 246.888 222.290,246.916 223.567,246.950 221.938 C 246.983 220.309,246.983 217.699,246.949 216.138 C 246.916 214.577,246.888 215.910,246.888 219.100 M195.850 247.550 C 198.133 247.582,201.868 247.582,204.150 247.550 C 206.433 247.518,204.565 247.491,200.000 247.491 C 195.435 247.491,193.567 247.518,195.850 247.550 M186.346 247.744 C 186.701 247.789,187.331 247.789,187.746 247.746 C 188.160 247.703,187.870 247.667,187.100 247.666 C 186.330 247.665,185.990 247.700,186.346 247.744 M212.146 247.744 C 212.501 247.789,213.131 247.789,213.546 247.746 C 213.960 247.703,213.670 247.667,212.900 247.666 C 212.130 247.665,211.790 247.700,212.146 247.744 M181.850 247.943 C 182.153 247.989,182.648 247.989,182.950 247.943 C 183.253 247.897,183.005 247.860,182.400 247.860 C 181.795 247.860,181.548 247.897,181.850 247.943 M217.050 247.943 C 217.353 247.989,217.847 247.989,218.150 247.943 C 218.453 247.897,218.205 247.860,217.600 247.860 C 216.995 247.860,216.748 247.897,217.050 247.943 M178.350 248.141 C 178.597 248.189,179.003 248.189,179.250 248.141 C 179.498 248.093,179.295 248.054,178.800 248.054 C 178.305 248.054,178.103 248.093,178.350 248.141 M220.750 248.141 C 220.998 248.189,221.403 248.189,221.650 248.141 C 221.898 248.093,221.695 248.054,221.200 248.054 C 220.705 248.054,220.503 248.093,220.750 248.141 M175.350 248.341 C 175.597 248.389,176.003 248.389,176.250 248.341 C 176.498 248.293,176.295 248.254,175.800 248.254 C 175.305 248.254,175.103 248.293,175.350 248.341 M223.750 248.341 C 223.998 248.389,224.403 248.389,224.650 248.341 C 224.898 248.293,224.695 248.254,224.200 248.254 C 223.705 248.254,223.503 248.293,223.750 248.341 M170.352 248.741 C 170.601 248.789,170.961 248.787,171.152 248.737 C 171.344 248.687,171.140 248.648,170.700 248.650 C 170.260 248.653,170.104 248.694,170.352 248.741 M228.952 248.741 C 229.201 248.789,229.561 248.787,229.752 248.737 C 229.944 248.687,229.740 248.648,229.300 248.650 C 228.860 248.653,228.704 248.694,228.952 248.741 M166.050 249.138 C 166.243 249.188,166.558 249.188,166.750 249.138 C 166.942 249.088,166.785 249.046,166.400 249.046 C 166.015 249.046,165.858 249.088,166.050 249.138 M233.250 249.138 C 233.443 249.188,233.757 249.188,233.950 249.138 C 234.143 249.088,233.985 249.046,233.600 249.046 C 233.215 249.046,233.058 249.088,233.250 249.138 M162.250 249.538 C 162.442 249.588,162.758 249.588,162.950 249.538 C 163.143 249.488,162.985 249.446,162.600 249.446 C 162.215 249.446,162.058 249.488,162.250 249.538 M237.050 249.538 C 237.243 249.588,237.558 249.588,237.750 249.538 C 237.943 249.488,237.785 249.446,237.400 249.446 C 237.015 249.446,236.857 249.488,237.050 249.538 M191.050 260.349 C 191.903 260.386,193.298 260.386,194.150 260.349 C 195.003 260.311,194.305 260.280,192.600 260.280 C 190.895 260.280,190.197 260.311,191.050 260.349 M205.850 260.349 C 206.703 260.386,208.097 260.386,208.950 260.349 C 209.803 260.311,209.105 260.280,207.400 260.280 C 205.695 260.280,204.998 260.311,205.850 260.349 M183.150 260.545 C 183.508 260.589,184.093 260.589,184.450 260.545 C 184.808 260.500,184.515 260.464,183.800 260.464 C 183.085 260.464,182.793 260.500,183.150 260.545 M215.550 260.545 C 215.907 260.589,216.493 260.589,216.850 260.545 C 217.207 260.500,216.915 260.464,216.200 260.464 C 215.485 260.464,215.193 260.500,215.550 260.545 M178.450 260.743 C 178.753 260.789,179.248 260.789,179.550 260.743 C 179.853 260.697,179.605 260.660,179.000 260.660 C 178.395 260.660,178.148 260.697,178.450 260.743 M220.450 260.743 C 220.753 260.789,221.248 260.789,221.550 260.743 C 221.853 260.697,221.605 260.660,221.000 260.660 C 220.395 260.660,220.148 260.697,220.450 260.743 M174.450 260.943 C 174.753 260.989,175.248 260.989,175.550 260.943 C 175.853 260.897,175.605 260.860,175.000 260.860 C 174.395 260.860,174.148 260.897,174.450 260.943 M224.450 260.943 C 224.753 260.989,225.248 260.989,225.550 260.943 C 225.853 260.897,225.605 260.860,225.000 260.860 C 224.395 260.860,224.148 260.897,224.450 260.943 M170.950 261.141 C 171.197 261.189,171.603 261.189,171.850 261.141 C 172.097 261.093,171.895 261.054,171.400 261.054 C 170.905 261.054,170.703 261.093,170.950 261.141 M228.150 261.141 C 228.398 261.189,228.803 261.189,229.050 261.141 C 229.298 261.093,229.095 261.054,228.600 261.054 C 228.105 261.054,227.903 261.093,228.150 261.141 M167.952 261.341 C 168.201 261.389,168.561 261.387,168.752 261.337 C 168.944 261.287,168.740 261.248,168.300 261.250 C 167.860 261.253,167.704 261.294,167.952 261.341 M231.352 261.341 C 231.601 261.389,231.961 261.387,232.152 261.337 C 232.344 261.287,232.140 261.248,231.700 261.250 C 231.260 261.253,231.104 261.294,231.352 261.341 M151.650 262.738 C 151.843 262.788,152.157 262.788,152.350 262.738 C 152.542 262.688,152.385 262.646,152.000 262.646 C 151.615 262.646,151.458 262.688,151.650 262.738 M247.650 262.738 C 247.843 262.788,248.157 262.788,248.350 262.738 C 248.543 262.688,248.385 262.646,248.000 262.646 C 247.615 262.646,247.457 262.688,247.650 262.738 M149.850 262.938 C 150.042 262.988,150.358 262.988,150.550 262.938 C 150.743 262.888,150.585 262.846,150.200 262.846 C 149.815 262.846,149.657 262.888,149.850 262.938 M148.050 263.138 C 148.243 263.188,148.558 263.188,148.750 263.138 C 148.942 263.088,148.785 263.046,148.400 263.046 C 148.015 263.046,147.858 263.088,148.050 263.138 M251.250 263.138 C 251.443 263.188,251.757 263.188,251.950 263.138 C 252.143 263.088,251.985 263.046,251.600 263.046 C 251.215 263.046,251.058 263.088,251.250 263.138 " stroke="none" fill="#93a9bb" fill-rule="evenodd"></path><path id="path4" d="M184.248 199.147 L 184.300 207.500 191.000 207.500 L 197.700 207.500 197.700 199.200 L 197.700 190.900 190.948 190.847 L 184.196 190.795 184.248 199.147 M202.291 191.050 C 202.239 191.188,202.219 194.945,202.248 199.400 L 202.300 207.500 209.000 207.500 L 215.700 207.500 215.752 199.150 L 215.804 190.800 209.096 190.800 C 203.910 190.800,202.366 190.857,202.291 191.050 M197.600 199.200 L 197.600 207.400 191.000 207.400 L 184.400 207.400 184.400 199.200 L 184.400 191.000 191.000 191.000 L 197.600 191.000 197.600 199.200 M215.600 199.200 L 215.600 207.400 209.000 207.400 L 202.400 207.400 202.400 199.200 L 202.400 191.000 209.000 191.000 L 215.600 191.000 215.600 199.200 M184.292 210.648 C 184.239 210.787,184.219 214.545,184.248 219.000 L 184.300 227.100 191.000 227.100 L 197.700 227.100 197.700 218.800 L 197.700 210.500 191.045 210.447 C 185.825 210.406,184.369 210.449,184.292 210.648 M202.292 210.648 C 202.239 210.787,202.219 214.545,202.248 219.000 L 202.300 227.100 209.000 227.100 L 215.700 227.100 215.700 218.800 L 215.700 210.500 209.045 210.447 C 203.825 210.406,202.369 210.449,202.292 210.648 M197.600 218.800 L 197.600 227.000 191.000 227.000 L 184.400 227.000 184.400 218.800 L 184.400 210.600 191.000 210.600 L 197.600 210.600 197.600 218.800 M215.600 218.800 L 215.600 227.000 209.000 227.000 L 202.400 227.000 202.400 218.800 L 202.400 210.600 209.000 210.600 L 215.600 210.600 215.600 218.800 " stroke="none" fill="#fccc9a" fill-rule="evenodd"></path></g></svg>